<mxfile host="Electron" modified="2023-11-26T20:18:58.398Z" agent="Mozilla/5.0 (Windows NT 10.0; Win64; x64) AppleWebKit/537.36 (KHTML, like Gecko) draw.io/22.1.2 Chrome/114.0.5735.289 Electron/25.9.4 Safari/537.36" etag="dwBEWxh3DrnaSbnDx441" version="22.1.2" type="device" pages="3">
  <diagram id="VpDuI0EtdxwhiPGQwlks" name="CAS UTILISATION">
    <mxGraphModel dx="1674" dy="836" grid="1" gridSize="10" guides="1" tooltips="1" connect="1" arrows="1" fold="1" page="1" pageScale="1" pageWidth="827" pageHeight="1169" math="0" shadow="0">
      <root>
        <mxCell id="0" />
        <mxCell id="1" parent="0" />
        <mxCell id="DTmMfVwVqoHziRDDNP4N-11" value="AppRoximité&lt;br&gt;Réseau Social&amp;nbsp; basé sur la Proximité" style="html=1;whiteSpace=wrap;horizontal=1;verticalAlign=top;fillColor=#e1d5e7;strokeColor=#9673a6;fontStyle=1" parent="1" vertex="1">
          <mxGeometry x="360" y="140" width="200" height="2640" as="geometry" />
        </mxCell>
        <mxCell id="dL3pzQKzcQ38fd-omLR7-9" value="Création de Groupes" style="html=1;whiteSpace=wrap;horizontal=1;verticalAlign=top;fillColor=#f5f5f5;fontColor=#333333;strokeColor=#666666;fontStyle=1" parent="1" vertex="1">
          <mxGeometry x="380" y="200" width="160" height="400" as="geometry" />
        </mxCell>
        <mxCell id="F95BAvxed9zrv9kjJUJj-1" value="Conception de logicel&lt;br&gt;Laboratoire 3&lt;br&gt;&lt;br&gt;Diagramme de cas d&#39;utilisation&lt;br&gt;&lt;br&gt;Version 0&lt;br&gt;Novembre 2023&lt;br&gt;&lt;br&gt;Mathieu Hatin (2296939) / Simon Turcotte (2395412) / Jean-Nicolas Tessier" style="rounded=0;whiteSpace=wrap;html=1;fillColor=#a20025;fontColor=#ffffff;strokeColor=#6F0000;" parent="1" vertex="1">
          <mxGeometry width="320" height="150" as="geometry" />
        </mxCell>
        <mxCell id="dL3pzQKzcQ38fd-omLR7-1" value="Utilisateur &lt;br&gt;d&#39;AppRoximité" style="shape=umlActor;verticalLabelPosition=middle;verticalAlign=middle;html=1;labelPosition=left;align=right;fillColor=#67AB9F;" parent="1" vertex="1">
          <mxGeometry x="190" y="350" width="30" height="60" as="geometry" />
        </mxCell>
        <mxCell id="dL3pzQKzcQ38fd-omLR7-12" style="orthogonalLoop=1;jettySize=auto;html=1;exitX=0;exitY=0.5;exitDx=0;exitDy=0;endArrow=none;endFill=0;entryX=0.75;entryY=0.1;entryDx=0;entryDy=0;entryPerimeter=0;" parent="1" source="dL3pzQKzcQ38fd-omLR7-3" target="dL3pzQKzcQ38fd-omLR7-1" edge="1">
          <mxGeometry relative="1" as="geometry">
            <mxPoint x="270" y="310" as="targetPoint" />
            <mxPoint x="380" y="270" as="sourcePoint" />
          </mxGeometry>
        </mxCell>
        <mxCell id="dL3pzQKzcQ38fd-omLR7-3" value="Créer &lt;br&gt;un groupe local" style="ellipse;whiteSpace=wrap;html=1;" parent="1" vertex="1">
          <mxGeometry x="390" y="240" width="140" height="70" as="geometry" />
        </mxCell>
        <mxCell id="dL3pzQKzcQ38fd-omLR7-4" value="Ajouter &lt;br&gt;un&amp;nbsp;membre au groupe" style="ellipse;whiteSpace=wrap;html=1;" parent="1" vertex="1">
          <mxGeometry x="394" y="330" width="140" height="70" as="geometry" />
        </mxCell>
        <mxCell id="dL3pzQKzcQ38fd-omLR7-5" value="Supprimer &lt;br&gt;un groupe" style="ellipse;whiteSpace=wrap;html=1;" parent="1" vertex="1">
          <mxGeometry x="394" y="515" width="140" height="70" as="geometry" />
        </mxCell>
        <mxCell id="dL3pzQKzcQ38fd-omLR7-13" style="orthogonalLoop=1;jettySize=auto;html=1;endArrow=none;endFill=0;exitX=0;exitY=0.5;exitDx=0;exitDy=0;entryX=1;entryY=0.3333333333333333;entryDx=0;entryDy=0;entryPerimeter=0;" parent="1" source="dL3pzQKzcQ38fd-omLR7-4" target="dL3pzQKzcQ38fd-omLR7-1" edge="1">
          <mxGeometry relative="1" as="geometry">
            <mxPoint x="280" y="320" as="targetPoint" />
            <mxPoint x="400" y="285" as="sourcePoint" />
          </mxGeometry>
        </mxCell>
        <mxCell id="dL3pzQKzcQ38fd-omLR7-14" style="orthogonalLoop=1;jettySize=auto;html=1;endArrow=none;endFill=0;exitX=0;exitY=0.5;exitDx=0;exitDy=0;entryX=1;entryY=1;entryDx=0;entryDy=0;entryPerimeter=0;" parent="1" source="dL3pzQKzcQ38fd-omLR7-5" target="dL3pzQKzcQ38fd-omLR7-1" edge="1">
          <mxGeometry relative="1" as="geometry">
            <mxPoint x="259" y="410" as="targetPoint" />
            <mxPoint x="394" y="455" as="sourcePoint" />
          </mxGeometry>
        </mxCell>
        <mxCell id="dL3pzQKzcQ38fd-omLR7-26" value="Retirer&lt;br&gt;un&amp;nbsp;membre au groupe" style="ellipse;whiteSpace=wrap;html=1;" parent="1" vertex="1">
          <mxGeometry x="390" y="420" width="140" height="70" as="geometry" />
        </mxCell>
        <mxCell id="dL3pzQKzcQ38fd-omLR7-27" style="orthogonalLoop=1;jettySize=auto;html=1;endArrow=none;endFill=0;exitX=0;exitY=0.5;exitDx=0;exitDy=0;entryX=0.5;entryY=0.5;entryDx=0;entryDy=0;entryPerimeter=0;" parent="1" source="dL3pzQKzcQ38fd-omLR7-26" target="dL3pzQKzcQ38fd-omLR7-1" edge="1">
          <mxGeometry relative="1" as="geometry">
            <mxPoint x="265" y="410" as="targetPoint" />
            <mxPoint x="410" y="375" as="sourcePoint" />
          </mxGeometry>
        </mxCell>
        <mxCell id="dL3pzQKzcQ38fd-omLR7-28" value="Publication de Contenus" style="html=1;whiteSpace=wrap;horizontal=1;verticalAlign=top;fillColor=#dae8fc;strokeColor=#6c8ebf;fontStyle=1" parent="1" vertex="1">
          <mxGeometry x="380" y="640" width="160" height="480" as="geometry" />
        </mxCell>
        <mxCell id="dL3pzQKzcQ38fd-omLR7-29" value="Utilisateur &lt;br&gt;d&#39;AppRoximité" style="shape=umlActor;verticalLabelPosition=middle;verticalAlign=middle;html=1;labelPosition=left;align=right;fillColor=#67AB9F;" parent="1" vertex="1">
          <mxGeometry x="190" y="790" width="30" height="60" as="geometry" />
        </mxCell>
        <mxCell id="dL3pzQKzcQ38fd-omLR7-30" style="orthogonalLoop=1;jettySize=auto;html=1;exitX=0;exitY=0.5;exitDx=0;exitDy=0;endArrow=none;endFill=0;entryX=0.75;entryY=0.1;entryDx=0;entryDy=0;entryPerimeter=0;" parent="1" source="dL3pzQKzcQ38fd-omLR7-31" target="dL3pzQKzcQ38fd-omLR7-29" edge="1">
          <mxGeometry relative="1" as="geometry">
            <mxPoint x="270" y="750" as="targetPoint" />
            <mxPoint x="380" y="710" as="sourcePoint" />
          </mxGeometry>
        </mxCell>
        <mxCell id="dL3pzQKzcQ38fd-omLR7-31" value="Sélectionner&lt;br&gt;des photos ou vidéos" style="ellipse;whiteSpace=wrap;html=1;" parent="1" vertex="1">
          <mxGeometry x="390" y="680" width="140" height="70" as="geometry" />
        </mxCell>
        <mxCell id="dL3pzQKzcQ38fd-omLR7-32" value="Téléverser&lt;br&gt;sur le profil" style="ellipse;whiteSpace=wrap;html=1;" parent="1" vertex="1">
          <mxGeometry x="394" y="770" width="140" height="70" as="geometry" />
        </mxCell>
        <mxCell id="dL3pzQKzcQ38fd-omLR7-33" value="Ajouter &lt;br&gt;des commentaires" style="ellipse;whiteSpace=wrap;html=1;" parent="1" vertex="1">
          <mxGeometry x="394" y="955" width="140" height="70" as="geometry" />
        </mxCell>
        <mxCell id="dL3pzQKzcQ38fd-omLR7-34" style="orthogonalLoop=1;jettySize=auto;html=1;endArrow=none;endFill=0;exitX=0;exitY=0.5;exitDx=0;exitDy=0;entryX=1;entryY=0.3333333333333333;entryDx=0;entryDy=0;entryPerimeter=0;" parent="1" source="dL3pzQKzcQ38fd-omLR7-32" target="dL3pzQKzcQ38fd-omLR7-29" edge="1">
          <mxGeometry relative="1" as="geometry">
            <mxPoint x="280" y="760" as="targetPoint" />
            <mxPoint x="400" y="725" as="sourcePoint" />
          </mxGeometry>
        </mxCell>
        <mxCell id="dL3pzQKzcQ38fd-omLR7-35" style="orthogonalLoop=1;jettySize=auto;html=1;endArrow=none;endFill=0;exitX=0;exitY=0.5;exitDx=0;exitDy=0;entryX=1;entryY=1;entryDx=0;entryDy=0;entryPerimeter=0;" parent="1" source="dL3pzQKzcQ38fd-omLR7-33" target="dL3pzQKzcQ38fd-omLR7-29" edge="1">
          <mxGeometry relative="1" as="geometry">
            <mxPoint x="259" y="850" as="targetPoint" />
            <mxPoint x="394" y="895" as="sourcePoint" />
          </mxGeometry>
        </mxCell>
        <mxCell id="dL3pzQKzcQ38fd-omLR7-36" value="Téléverser&lt;br&gt;dans un groupe spécifique" style="ellipse;whiteSpace=wrap;html=1;" parent="1" vertex="1">
          <mxGeometry x="390" y="860" width="140" height="70" as="geometry" />
        </mxCell>
        <mxCell id="dL3pzQKzcQ38fd-omLR7-37" style="orthogonalLoop=1;jettySize=auto;html=1;endArrow=none;endFill=0;exitX=0;exitY=0.5;exitDx=0;exitDy=0;entryX=0.5;entryY=0.5;entryDx=0;entryDy=0;entryPerimeter=0;" parent="1" source="dL3pzQKzcQ38fd-omLR7-36" target="dL3pzQKzcQ38fd-omLR7-29" edge="1">
          <mxGeometry relative="1" as="geometry">
            <mxPoint x="265" y="850" as="targetPoint" />
            <mxPoint x="410" y="815" as="sourcePoint" />
          </mxGeometry>
        </mxCell>
        <mxCell id="dL3pzQKzcQ38fd-omLR7-38" value="Ajouter &lt;br&gt;des hastags" style="ellipse;whiteSpace=wrap;html=1;" parent="1" vertex="1">
          <mxGeometry x="394" y="1045" width="140" height="70" as="geometry" />
        </mxCell>
        <mxCell id="dL3pzQKzcQ38fd-omLR7-39" style="orthogonalLoop=1;jettySize=auto;html=1;endArrow=none;endFill=0;exitX=0;exitY=0.5;exitDx=0;exitDy=0;entryX=0;entryY=1;entryDx=0;entryDy=0;entryPerimeter=0;" parent="1" source="dL3pzQKzcQ38fd-omLR7-38" target="dL3pzQKzcQ38fd-omLR7-29" edge="1">
          <mxGeometry relative="1" as="geometry">
            <mxPoint x="220" y="940" as="targetPoint" />
            <mxPoint x="394" y="985" as="sourcePoint" />
          </mxGeometry>
        </mxCell>
        <mxCell id="dL3pzQKzcQ38fd-omLR7-40" value="Messagerie" style="html=1;whiteSpace=wrap;horizontal=1;verticalAlign=top;fillColor=#d5e8d4;strokeColor=#82b366;labelBackgroundColor=none;labelBorderColor=none;fontStyle=1" parent="1" vertex="1">
          <mxGeometry x="380" y="1200" width="160" height="310" as="geometry" />
        </mxCell>
        <mxCell id="dL3pzQKzcQ38fd-omLR7-41" value="Utilisateur &lt;br&gt;d&#39;AppRoximité" style="shape=umlActor;verticalLabelPosition=middle;verticalAlign=middle;html=1;labelPosition=left;align=right;shadow=0;labelBackgroundColor=none;labelBorderColor=none;direction=east;fillStyle=auto;fillColor=#67AB9F;" parent="1" vertex="1">
          <mxGeometry x="190" y="1350" width="30" height="60" as="geometry" />
        </mxCell>
        <mxCell id="dL3pzQKzcQ38fd-omLR7-42" style="orthogonalLoop=1;jettySize=auto;html=1;exitX=0;exitY=0.5;exitDx=0;exitDy=0;endArrow=none;endFill=0;entryX=0.75;entryY=0.1;entryDx=0;entryDy=0;entryPerimeter=0;" parent="1" source="dL3pzQKzcQ38fd-omLR7-43" target="dL3pzQKzcQ38fd-omLR7-41" edge="1">
          <mxGeometry relative="1" as="geometry">
            <mxPoint x="270" y="1310" as="targetPoint" />
            <mxPoint x="380" y="1270" as="sourcePoint" />
          </mxGeometry>
        </mxCell>
        <mxCell id="dL3pzQKzcQ38fd-omLR7-43" value="Envoyer&lt;br&gt;des messages privés" style="ellipse;whiteSpace=wrap;html=1;" parent="1" vertex="1">
          <mxGeometry x="390" y="1240" width="140" height="70" as="geometry" />
        </mxCell>
        <mxCell id="dL3pzQKzcQ38fd-omLR7-44" value="Créer&lt;br&gt;des converstion de groupe" style="ellipse;whiteSpace=wrap;html=1;" parent="1" vertex="1">
          <mxGeometry x="394" y="1330" width="140" height="70" as="geometry" />
        </mxCell>
        <mxCell id="dL3pzQKzcQ38fd-omLR7-46" style="orthogonalLoop=1;jettySize=auto;html=1;endArrow=none;endFill=0;exitX=0;exitY=0.5;exitDx=0;exitDy=0;entryX=1;entryY=0.3333333333333333;entryDx=0;entryDy=0;entryPerimeter=0;" parent="1" source="dL3pzQKzcQ38fd-omLR7-44" target="dL3pzQKzcQ38fd-omLR7-41" edge="1">
          <mxGeometry relative="1" as="geometry">
            <mxPoint x="280" y="1320" as="targetPoint" />
            <mxPoint x="400" y="1285" as="sourcePoint" />
          </mxGeometry>
        </mxCell>
        <mxCell id="dL3pzQKzcQ38fd-omLR7-48" value="Recevoir&lt;br&gt;des notifications de nouveaux messages" style="ellipse;whiteSpace=wrap;html=1;" parent="1" vertex="1">
          <mxGeometry x="390" y="1420" width="140" height="70" as="geometry" />
        </mxCell>
        <mxCell id="dL3pzQKzcQ38fd-omLR7-49" style="orthogonalLoop=1;jettySize=auto;html=1;endArrow=none;endFill=0;exitX=0;exitY=0.5;exitDx=0;exitDy=0;entryX=0.5;entryY=0.5;entryDx=0;entryDy=0;entryPerimeter=0;" parent="1" source="dL3pzQKzcQ38fd-omLR7-48" target="dL3pzQKzcQ38fd-omLR7-41" edge="1">
          <mxGeometry relative="1" as="geometry">
            <mxPoint x="265" y="1410" as="targetPoint" />
            <mxPoint x="410" y="1375" as="sourcePoint" />
          </mxGeometry>
        </mxCell>
        <mxCell id="dL3pzQKzcQ38fd-omLR7-52" value="Découverte" style="html=1;whiteSpace=wrap;horizontal=1;verticalAlign=top;fillColor=#ffe6cc;strokeColor=#d79b00;fontStyle=1" parent="1" vertex="1">
          <mxGeometry x="380" y="1560" width="160" height="580" as="geometry" />
        </mxCell>
        <mxCell id="dL3pzQKzcQ38fd-omLR7-53" value="Utilisateur &lt;br&gt;d&#39;AppRoximité" style="shape=umlActor;verticalLabelPosition=middle;verticalAlign=middle;html=1;labelPosition=left;align=right;fillColor=#67AB9F;" parent="1" vertex="1">
          <mxGeometry x="190" y="1710" width="30" height="60" as="geometry" />
        </mxCell>
        <mxCell id="dL3pzQKzcQ38fd-omLR7-54" style="orthogonalLoop=1;jettySize=auto;html=1;exitX=0;exitY=0.5;exitDx=0;exitDy=0;endArrow=none;endFill=0;entryX=0.75;entryY=0.1;entryDx=0;entryDy=0;entryPerimeter=0;" parent="1" source="dL3pzQKzcQ38fd-omLR7-55" target="dL3pzQKzcQ38fd-omLR7-53" edge="1">
          <mxGeometry relative="1" as="geometry">
            <mxPoint x="270" y="1670" as="targetPoint" />
            <mxPoint x="380" y="1630" as="sourcePoint" />
          </mxGeometry>
        </mxCell>
        <mxCell id="dL3pzQKzcQ38fd-omLR7-55" value="Activer&lt;br&gt;la localisation" style="ellipse;whiteSpace=wrap;html=1;" parent="1" vertex="1">
          <mxGeometry x="390" y="1600" width="140" height="70" as="geometry" />
        </mxCell>
        <mxCell id="dL3pzQKzcQ38fd-omLR7-56" value="Désactiver&lt;br&gt;la localisation" style="ellipse;whiteSpace=wrap;html=1;" parent="1" vertex="1">
          <mxGeometry x="394" y="1690" width="140" height="70" as="geometry" />
        </mxCell>
        <mxCell id="dL3pzQKzcQ38fd-omLR7-57" value="Trouver&lt;br style=&quot;border-color: var(--border-color);&quot;&gt;des événement à proximité" style="ellipse;whiteSpace=wrap;html=1;" parent="1" vertex="1">
          <mxGeometry x="394" y="1875" width="140" height="70" as="geometry" />
        </mxCell>
        <mxCell id="dL3pzQKzcQ38fd-omLR7-58" style="orthogonalLoop=1;jettySize=auto;html=1;endArrow=none;endFill=0;exitX=0;exitY=0.5;exitDx=0;exitDy=0;entryX=1;entryY=0.3333333333333333;entryDx=0;entryDy=0;entryPerimeter=0;" parent="1" source="dL3pzQKzcQ38fd-omLR7-56" target="dL3pzQKzcQ38fd-omLR7-53" edge="1">
          <mxGeometry relative="1" as="geometry">
            <mxPoint x="280" y="1680" as="targetPoint" />
            <mxPoint x="400" y="1645" as="sourcePoint" />
          </mxGeometry>
        </mxCell>
        <mxCell id="dL3pzQKzcQ38fd-omLR7-59" style="orthogonalLoop=1;jettySize=auto;html=1;endArrow=none;endFill=0;exitX=0;exitY=0.5;exitDx=0;exitDy=0;entryX=1;entryY=1;entryDx=0;entryDy=0;entryPerimeter=0;" parent="1" source="dL3pzQKzcQ38fd-omLR7-57" target="dL3pzQKzcQ38fd-omLR7-53" edge="1">
          <mxGeometry relative="1" as="geometry">
            <mxPoint x="259" y="1770" as="targetPoint" />
            <mxPoint x="394" y="1815" as="sourcePoint" />
          </mxGeometry>
        </mxCell>
        <mxCell id="dL3pzQKzcQ38fd-omLR7-60" value="Trouver&lt;br&gt;des utilisateurs à proximité" style="ellipse;whiteSpace=wrap;html=1;" parent="1" vertex="1">
          <mxGeometry x="390" y="1780" width="140" height="70" as="geometry" />
        </mxCell>
        <mxCell id="dL3pzQKzcQ38fd-omLR7-61" style="orthogonalLoop=1;jettySize=auto;html=1;endArrow=none;endFill=0;exitX=0;exitY=0.5;exitDx=0;exitDy=0;entryX=0.5;entryY=0.5;entryDx=0;entryDy=0;entryPerimeter=0;" parent="1" source="dL3pzQKzcQ38fd-omLR7-60" target="dL3pzQKzcQ38fd-omLR7-53" edge="1">
          <mxGeometry relative="1" as="geometry">
            <mxPoint x="265" y="1770" as="targetPoint" />
            <mxPoint x="410" y="1735" as="sourcePoint" />
          </mxGeometry>
        </mxCell>
        <mxCell id="dL3pzQKzcQ38fd-omLR7-62" value="S&#39;inscrire&lt;br&gt;à des événements" style="ellipse;whiteSpace=wrap;html=1;" parent="1" vertex="1">
          <mxGeometry x="394" y="1965" width="140" height="70" as="geometry" />
        </mxCell>
        <mxCell id="dL3pzQKzcQ38fd-omLR7-63" style="orthogonalLoop=1;jettySize=auto;html=1;endArrow=none;endFill=0;exitX=0;exitY=0.5;exitDx=0;exitDy=0;entryX=0;entryY=1;entryDx=0;entryDy=0;entryPerimeter=0;" parent="1" source="dL3pzQKzcQ38fd-omLR7-62" target="dL3pzQKzcQ38fd-omLR7-53" edge="1">
          <mxGeometry relative="1" as="geometry">
            <mxPoint x="220" y="1860" as="targetPoint" />
            <mxPoint x="394" y="1905" as="sourcePoint" />
          </mxGeometry>
        </mxCell>
        <mxCell id="dL3pzQKzcQ38fd-omLR7-64" value="Intéragir&lt;br&gt;avec les publications d&#39;autres utilisateurs" style="ellipse;whiteSpace=wrap;html=1;" parent="1" vertex="1">
          <mxGeometry x="390" y="2050" width="140" height="70" as="geometry" />
        </mxCell>
        <mxCell id="dL3pzQKzcQ38fd-omLR7-65" style="orthogonalLoop=1;jettySize=auto;html=1;endArrow=none;endFill=0;exitX=0;exitY=0.5;exitDx=0;exitDy=0;entryX=0;entryY=1;entryDx=0;entryDy=0;entryPerimeter=0;" parent="1" source="dL3pzQKzcQ38fd-omLR7-64" target="dL3pzQKzcQ38fd-omLR7-53" edge="1">
          <mxGeometry relative="1" as="geometry">
            <mxPoint x="186" y="1867.5" as="targetPoint" />
            <mxPoint x="390" y="2002.5" as="sourcePoint" />
          </mxGeometry>
        </mxCell>
        <mxCell id="DTmMfVwVqoHziRDDNP4N-1" value="Gestion du Profil" style="html=1;whiteSpace=wrap;horizontal=1;verticalAlign=top;fillColor=#f8cecc;strokeColor=#b85450;fontStyle=1" parent="1" vertex="1">
          <mxGeometry x="380" y="2360" width="160" height="400" as="geometry" />
        </mxCell>
        <mxCell id="DTmMfVwVqoHziRDDNP4N-2" value="Utilisateur &lt;br&gt;d&#39;AppRoximité" style="shape=umlActor;verticalLabelPosition=middle;verticalAlign=middle;html=1;labelPosition=left;align=right;fillColor=#67AB9F;" parent="1" vertex="1">
          <mxGeometry x="190" y="2510" width="30" height="60" as="geometry" />
        </mxCell>
        <mxCell id="DTmMfVwVqoHziRDDNP4N-3" style="orthogonalLoop=1;jettySize=auto;html=1;exitX=0;exitY=0.5;exitDx=0;exitDy=0;endArrow=none;endFill=0;entryX=0.75;entryY=0.1;entryDx=0;entryDy=0;entryPerimeter=0;" parent="1" source="DTmMfVwVqoHziRDDNP4N-4" target="DTmMfVwVqoHziRDDNP4N-2" edge="1">
          <mxGeometry relative="1" as="geometry">
            <mxPoint x="270" y="2470" as="targetPoint" />
            <mxPoint x="380" y="2430" as="sourcePoint" />
          </mxGeometry>
        </mxCell>
        <mxCell id="DTmMfVwVqoHziRDDNP4N-4" value="Mettre à jour&lt;br&gt;les informations personnelles" style="ellipse;whiteSpace=wrap;html=1;" parent="1" vertex="1">
          <mxGeometry x="390" y="2400" width="140" height="70" as="geometry" />
        </mxCell>
        <mxCell id="DTmMfVwVqoHziRDDNP4N-5" value="Ajouter &lt;br&gt;des centres d&#39;intérêt" style="ellipse;whiteSpace=wrap;html=1;" parent="1" vertex="1">
          <mxGeometry x="394" y="2490" width="140" height="70" as="geometry" />
        </mxCell>
        <mxCell id="DTmMfVwVqoHziRDDNP4N-6" value="Gérer&lt;br&gt;les abonnements" style="ellipse;whiteSpace=wrap;html=1;" parent="1" vertex="1">
          <mxGeometry x="394" y="2675" width="140" height="70" as="geometry" />
        </mxCell>
        <mxCell id="DTmMfVwVqoHziRDDNP4N-7" style="orthogonalLoop=1;jettySize=auto;html=1;endArrow=none;endFill=0;exitX=0;exitY=0.5;exitDx=0;exitDy=0;entryX=1;entryY=0.3333333333333333;entryDx=0;entryDy=0;entryPerimeter=0;" parent="1" source="DTmMfVwVqoHziRDDNP4N-5" target="DTmMfVwVqoHziRDDNP4N-2" edge="1">
          <mxGeometry relative="1" as="geometry">
            <mxPoint x="280" y="2480" as="targetPoint" />
            <mxPoint x="400" y="2445" as="sourcePoint" />
          </mxGeometry>
        </mxCell>
        <mxCell id="DTmMfVwVqoHziRDDNP4N-8" style="orthogonalLoop=1;jettySize=auto;html=1;endArrow=none;endFill=0;exitX=0;exitY=0.5;exitDx=0;exitDy=0;entryX=1;entryY=1;entryDx=0;entryDy=0;entryPerimeter=0;" parent="1" source="DTmMfVwVqoHziRDDNP4N-6" target="DTmMfVwVqoHziRDDNP4N-2" edge="1">
          <mxGeometry relative="1" as="geometry">
            <mxPoint x="259" y="2570" as="targetPoint" />
            <mxPoint x="394" y="2615" as="sourcePoint" />
          </mxGeometry>
        </mxCell>
        <mxCell id="DTmMfVwVqoHziRDDNP4N-9" value="Modifier&lt;br&gt;les paramètres de confidentialité" style="ellipse;whiteSpace=wrap;html=1;" parent="1" vertex="1">
          <mxGeometry x="390" y="2580" width="140" height="70" as="geometry" />
        </mxCell>
        <mxCell id="DTmMfVwVqoHziRDDNP4N-10" style="orthogonalLoop=1;jettySize=auto;html=1;endArrow=none;endFill=0;exitX=0;exitY=0.5;exitDx=0;exitDy=0;entryX=0.5;entryY=0.5;entryDx=0;entryDy=0;entryPerimeter=0;" parent="1" source="DTmMfVwVqoHziRDDNP4N-9" target="DTmMfVwVqoHziRDDNP4N-2" edge="1">
          <mxGeometry relative="1" as="geometry">
            <mxPoint x="265" y="2570" as="targetPoint" />
            <mxPoint x="410" y="2535" as="sourcePoint" />
          </mxGeometry>
        </mxCell>
      </root>
    </mxGraphModel>
  </diagram>
  <diagram id="rrxUzh5ShQwn-6bIce2N" name="ACTIVITÉS">
    <mxGraphModel dx="847" dy="836" grid="1" gridSize="10" guides="1" tooltips="1" connect="1" arrows="1" fold="1" page="1" pageScale="1" pageWidth="827" pageHeight="1169" math="0" shadow="0">
      <root>
        <mxCell id="0" />
        <mxCell id="1" parent="0" />
        <mxCell id="cQ_oaxNSxp0ORyQgGtt_-1" value="UN UTILISATEUR RECOIT UNE NOTIFICATION DE PROXIMITÉ" style="html=1;whiteSpace=wrap;horizontal=1;verticalAlign=top;fillColor=#dae8fc;strokeColor=#6c8ebf;fontStyle=1" parent="1" vertex="1">
          <mxGeometry x="880" y="2348" width="650" height="1150" as="geometry" />
        </mxCell>
        <mxCell id="Z0ggUWDLiYjtgG6JvVh8-1" value="Conception de logicel&lt;br&gt;Laboratoire 3&lt;br&gt;&lt;br&gt;Diagrammes d&#39;activités&lt;br&gt;&lt;br&gt;Version 0&lt;br&gt;Novembre 2023&lt;br&gt;&lt;br&gt;Mathieu Hatin (2296939) / Simon Turcotte (2395412) / Jean-Nicolas Tessier" style="rounded=0;whiteSpace=wrap;html=1;fillColor=#a20025;fontColor=#ffffff;strokeColor=#6F0000;" parent="1" vertex="1">
          <mxGeometry x="827" width="320" height="150" as="geometry" />
        </mxCell>
        <mxCell id="Zbu0JNuDL0s5DPFTSNl0-2" value="L&#39;utilisateur est authentifié" style="shape=note2;boundedLbl=1;whiteSpace=wrap;html=1;size=25;verticalAlign=top;align=center;" parent="1" vertex="1">
          <mxGeometry x="1260" y="2400" width="120" height="60" as="geometry" />
        </mxCell>
        <mxCell id="Zbu0JNuDL0s5DPFTSNl0-3" value="Vérifier la localisation" style="html=1;align=center;verticalAlign=top;rounded=1;absoluteArcSize=1;arcSize=10;dashed=0;whiteSpace=wrap;" parent="1" vertex="1">
          <mxGeometry x="1065" y="2478" width="140" height="40" as="geometry" />
        </mxCell>
        <mxCell id="Zbu0JNuDL0s5DPFTSNl0-4" value="" style="ellipse;fillColor=strokeColor;html=1;" parent="1" vertex="1">
          <mxGeometry x="1120" y="2418" width="30" height="30" as="geometry" />
        </mxCell>
        <mxCell id="Zbu0JNuDL0s5DPFTSNl0-5" value="" style="endArrow=none;startArrow=none;endFill=0;startFill=0;endSize=8;html=1;verticalAlign=bottom;dashed=1;labelBackgroundColor=none;dashPattern=10 10;rounded=0;exitX=0;exitY=0.5;exitDx=0;exitDy=0;exitPerimeter=0;entryX=0;entryY=0.5;entryDx=0;entryDy=0;" parent="1" source="Zbu0JNuDL0s5DPFTSNl0-2" target="Zbu0JNuDL0s5DPFTSNl0-4" edge="1">
          <mxGeometry width="160" relative="1" as="geometry">
            <mxPoint x="1180" y="2578" as="sourcePoint" />
            <mxPoint x="1340" y="2578" as="targetPoint" />
          </mxGeometry>
        </mxCell>
        <mxCell id="Zbu0JNuDL0s5DPFTSNl0-6" value="" style="html=1;verticalAlign=bottom;labelBackgroundColor=none;endArrow=block;endFill=1;rounded=0;exitX=0.5;exitY=1;exitDx=0;exitDy=0;entryX=0.5;entryY=0;entryDx=0;entryDy=0;" parent="1" source="Zbu0JNuDL0s5DPFTSNl0-4" target="Zbu0JNuDL0s5DPFTSNl0-3" edge="1">
          <mxGeometry width="160" relative="1" as="geometry">
            <mxPoint x="1180" y="2578" as="sourcePoint" />
            <mxPoint x="1340" y="2578" as="targetPoint" />
          </mxGeometry>
        </mxCell>
        <mxCell id="Zbu0JNuDL0s5DPFTSNl0-10" value="&lt;br&gt;" style="edgeLabel;html=1;align=center;verticalAlign=middle;resizable=0;points=[];" parent="Zbu0JNuDL0s5DPFTSNl0-6" vertex="1" connectable="0">
          <mxGeometry x="-0.24" relative="1" as="geometry">
            <mxPoint as="offset" />
          </mxGeometry>
        </mxCell>
        <mxCell id="Zbu0JNuDL0s5DPFTSNl0-12" value="Localisation activée ?" style="rhombus;" parent="1" vertex="1">
          <mxGeometry x="1060" y="2554.19" width="150" height="140" as="geometry" />
        </mxCell>
        <mxCell id="Zbu0JNuDL0s5DPFTSNl0-13" value="" style="html=1;verticalAlign=bottom;labelBackgroundColor=none;endArrow=block;endFill=1;rounded=0;exitX=0.5;exitY=1;exitDx=0;exitDy=0;entryX=0.5;entryY=0;entryDx=0;entryDy=0;" parent="1" source="Zbu0JNuDL0s5DPFTSNl0-3" target="Zbu0JNuDL0s5DPFTSNl0-12" edge="1">
          <mxGeometry width="160" relative="1" as="geometry">
            <mxPoint x="1159.5" y="2534.19" as="sourcePoint" />
            <mxPoint x="1159.5" y="2584.19" as="targetPoint" />
          </mxGeometry>
        </mxCell>
        <mxCell id="Zbu0JNuDL0s5DPFTSNl0-14" value="&lt;br&gt;" style="edgeLabel;html=1;align=center;verticalAlign=middle;resizable=0;points=[];" parent="Zbu0JNuDL0s5DPFTSNl0-13" vertex="1" connectable="0">
          <mxGeometry x="-0.24" relative="1" as="geometry">
            <mxPoint as="offset" />
          </mxGeometry>
        </mxCell>
        <mxCell id="Zbu0JNuDL0s5DPFTSNl0-15" value="" style="ellipse;html=1;shape=endState;fillColor=strokeColor;" parent="1" vertex="1">
          <mxGeometry x="1280" y="2609.19" width="30" height="30" as="geometry" />
        </mxCell>
        <mxCell id="Zbu0JNuDL0s5DPFTSNl0-17" value="" style="html=1;verticalAlign=bottom;labelBackgroundColor=none;endArrow=block;endFill=1;rounded=0;entryX=0;entryY=0.5;entryDx=0;entryDy=0;exitX=1;exitY=0.5;exitDx=0;exitDy=0;" parent="1" source="Zbu0JNuDL0s5DPFTSNl0-12" target="Zbu0JNuDL0s5DPFTSNl0-15" edge="1">
          <mxGeometry width="160" relative="1" as="geometry">
            <mxPoint x="1323" y="2649.19" as="sourcePoint" />
            <mxPoint x="1208" y="2619.19" as="targetPoint" />
          </mxGeometry>
        </mxCell>
        <mxCell id="Zbu0JNuDL0s5DPFTSNl0-18" value="&lt;br&gt;" style="edgeLabel;html=1;align=center;verticalAlign=middle;resizable=0;points=[];" parent="Zbu0JNuDL0s5DPFTSNl0-17" vertex="1" connectable="0">
          <mxGeometry x="-0.24" relative="1" as="geometry">
            <mxPoint as="offset" />
          </mxGeometry>
        </mxCell>
        <mxCell id="Zbu0JNuDL0s5DPFTSNl0-19" value="Non" style="edgeLabel;html=1;align=center;verticalAlign=middle;resizable=0;points=[];" parent="Zbu0JNuDL0s5DPFTSNl0-17" vertex="1" connectable="0">
          <mxGeometry x="-0.1077" y="-1" relative="1" as="geometry">
            <mxPoint as="offset" />
          </mxGeometry>
        </mxCell>
        <mxCell id="Zbu0JNuDL0s5DPFTSNl0-20" value="" style="html=1;verticalAlign=bottom;labelBackgroundColor=none;endArrow=block;endFill=1;rounded=0;exitX=0.5;exitY=1;exitDx=0;exitDy=0;entryX=0.5;entryY=0;entryDx=0;entryDy=0;" parent="1" source="Zbu0JNuDL0s5DPFTSNl0-12" target="Zbu0JNuDL0s5DPFTSNl0-28" edge="1">
          <mxGeometry width="160" relative="1" as="geometry">
            <mxPoint x="1208" y="2789.19" as="sourcePoint" />
            <mxPoint x="1208" y="2859.19" as="targetPoint" />
          </mxGeometry>
        </mxCell>
        <mxCell id="Zbu0JNuDL0s5DPFTSNl0-21" value="&lt;br&gt;" style="edgeLabel;html=1;align=center;verticalAlign=middle;resizable=0;points=[];" parent="Zbu0JNuDL0s5DPFTSNl0-20" vertex="1" connectable="0">
          <mxGeometry x="-0.24" relative="1" as="geometry">
            <mxPoint x="20" y="48" as="offset" />
          </mxGeometry>
        </mxCell>
        <mxCell id="Zbu0JNuDL0s5DPFTSNl0-27" value="Oui" style="edgeLabel;html=1;align=center;verticalAlign=middle;resizable=0;points=[];" parent="Zbu0JNuDL0s5DPFTSNl0-20" vertex="1" connectable="0">
          <mxGeometry x="-0.1714" relative="1" as="geometry">
            <mxPoint x="20" y="48" as="offset" />
          </mxGeometry>
        </mxCell>
        <mxCell id="Zbu0JNuDL0s5DPFTSNl0-40" value="Oui" style="edgeLabel;html=1;align=center;verticalAlign=middle;resizable=0;points=[];" parent="Zbu0JNuDL0s5DPFTSNl0-20" vertex="1" connectable="0">
          <mxGeometry x="-0.0513" y="1" relative="1" as="geometry">
            <mxPoint as="offset" />
          </mxGeometry>
        </mxCell>
        <mxCell id="Zbu0JNuDL0s5DPFTSNl0-28" value="Chercher Notifications de Proximité" style="html=1;align=center;verticalAlign=top;rounded=1;absoluteArcSize=1;arcSize=10;dashed=0;whiteSpace=wrap;" parent="1" vertex="1">
          <mxGeometry x="1065" y="2748" width="140" height="40" as="geometry" />
        </mxCell>
        <mxCell id="Zbu0JNuDL0s5DPFTSNl0-30" value="Notification trouvées ?" style="rhombus;" parent="1" vertex="1">
          <mxGeometry x="1060" y="2838" width="150" height="140" as="geometry" />
        </mxCell>
        <mxCell id="Zbu0JNuDL0s5DPFTSNl0-31" value="" style="html=1;verticalAlign=bottom;labelBackgroundColor=none;endArrow=block;endFill=1;rounded=0;entryX=0.5;entryY=0;entryDx=0;entryDy=0;exitX=0.5;exitY=1;exitDx=0;exitDy=0;" parent="1" source="Zbu0JNuDL0s5DPFTSNl0-28" target="Zbu0JNuDL0s5DPFTSNl0-30" edge="1">
          <mxGeometry width="160" relative="1" as="geometry">
            <mxPoint x="1268" y="2869.2799999999997" as="sourcePoint" />
            <mxPoint x="1202.5" y="2889.2799999999997" as="targetPoint" />
          </mxGeometry>
        </mxCell>
        <mxCell id="Zbu0JNuDL0s5DPFTSNl0-32" value="&lt;br&gt;" style="edgeLabel;html=1;align=center;verticalAlign=middle;resizable=0;points=[];" parent="Zbu0JNuDL0s5DPFTSNl0-31" vertex="1" connectable="0">
          <mxGeometry x="-0.24" relative="1" as="geometry">
            <mxPoint as="offset" />
          </mxGeometry>
        </mxCell>
        <mxCell id="Zbu0JNuDL0s5DPFTSNl0-33" value="" style="ellipse;html=1;shape=endState;fillColor=strokeColor;" parent="1" vertex="1">
          <mxGeometry x="1280" y="2893" width="30" height="30" as="geometry" />
        </mxCell>
        <mxCell id="Zbu0JNuDL0s5DPFTSNl0-34" value="" style="html=1;verticalAlign=bottom;labelBackgroundColor=none;endArrow=block;endFill=1;rounded=0;entryX=0;entryY=0.5;entryDx=0;entryDy=0;exitX=1;exitY=0.5;exitDx=0;exitDy=0;" parent="1" source="Zbu0JNuDL0s5DPFTSNl0-30" target="Zbu0JNuDL0s5DPFTSNl0-33" edge="1">
          <mxGeometry width="160" relative="1" as="geometry">
            <mxPoint x="1328" y="2919.2799999999997" as="sourcePoint" />
            <mxPoint x="1213" y="2889.2799999999997" as="targetPoint" />
          </mxGeometry>
        </mxCell>
        <mxCell id="Zbu0JNuDL0s5DPFTSNl0-35" value="&lt;br&gt;" style="edgeLabel;html=1;align=center;verticalAlign=middle;resizable=0;points=[];" parent="Zbu0JNuDL0s5DPFTSNl0-34" vertex="1" connectable="0">
          <mxGeometry x="-0.24" relative="1" as="geometry">
            <mxPoint as="offset" />
          </mxGeometry>
        </mxCell>
        <mxCell id="Zbu0JNuDL0s5DPFTSNl0-36" value="Non" style="edgeLabel;html=1;align=center;verticalAlign=middle;resizable=0;points=[];" parent="Zbu0JNuDL0s5DPFTSNl0-34" vertex="1" connectable="0">
          <mxGeometry x="-0.1077" y="-1" relative="1" as="geometry">
            <mxPoint as="offset" />
          </mxGeometry>
        </mxCell>
        <mxCell id="Zbu0JNuDL0s5DPFTSNl0-37" value="" style="html=1;verticalAlign=bottom;labelBackgroundColor=none;endArrow=block;endFill=1;rounded=0;exitX=0.5;exitY=1;exitDx=0;exitDy=0;entryX=0.5;entryY=0;entryDx=0;entryDy=0;" parent="1" source="Zbu0JNuDL0s5DPFTSNl0-30" target="Zbu0JNuDL0s5DPFTSNl0-41" edge="1">
          <mxGeometry width="160" relative="1" as="geometry">
            <mxPoint x="1288" y="2959.2799999999997" as="sourcePoint" />
            <mxPoint x="1135" y="3028" as="targetPoint" />
          </mxGeometry>
        </mxCell>
        <mxCell id="Zbu0JNuDL0s5DPFTSNl0-38" value="&lt;br&gt;" style="edgeLabel;html=1;align=center;verticalAlign=middle;resizable=0;points=[];" parent="Zbu0JNuDL0s5DPFTSNl0-37" vertex="1" connectable="0">
          <mxGeometry x="-0.24" relative="1" as="geometry">
            <mxPoint as="offset" />
          </mxGeometry>
        </mxCell>
        <mxCell id="Zbu0JNuDL0s5DPFTSNl0-39" value="Oui" style="edgeLabel;html=1;align=center;verticalAlign=middle;resizable=0;points=[];" parent="Zbu0JNuDL0s5DPFTSNl0-37" vertex="1" connectable="0">
          <mxGeometry x="-0.1714" relative="1" as="geometry">
            <mxPoint as="offset" />
          </mxGeometry>
        </mxCell>
        <mxCell id="Zbu0JNuDL0s5DPFTSNl0-41" value="Vérifier les préférences de l&#39;Utilisateur" style="html=1;align=center;verticalAlign=top;rounded=1;absoluteArcSize=1;arcSize=10;dashed=0;whiteSpace=wrap;" parent="1" vertex="1">
          <mxGeometry x="1065" y="3028" width="140" height="40" as="geometry" />
        </mxCell>
        <mxCell id="Zbu0JNuDL0s5DPFTSNl0-42" value="" style="html=1;verticalAlign=bottom;labelBackgroundColor=none;endArrow=block;endFill=1;rounded=0;exitX=0.5;exitY=1;exitDx=0;exitDy=0;entryX=0.5;entryY=0;entryDx=0;entryDy=0;" parent="1" source="Zbu0JNuDL0s5DPFTSNl0-41" target="Zbu0JNuDL0s5DPFTSNl0-45" edge="1">
          <mxGeometry width="160" relative="1" as="geometry">
            <mxPoint x="1135" y="3098" as="sourcePoint" />
            <mxPoint x="1135" y="3148" as="targetPoint" />
          </mxGeometry>
        </mxCell>
        <mxCell id="Zbu0JNuDL0s5DPFTSNl0-43" value="&lt;br&gt;" style="edgeLabel;html=1;align=center;verticalAlign=middle;resizable=0;points=[];" parent="Zbu0JNuDL0s5DPFTSNl0-42" vertex="1" connectable="0">
          <mxGeometry x="-0.24" relative="1" as="geometry">
            <mxPoint as="offset" />
          </mxGeometry>
        </mxCell>
        <mxCell id="Zbu0JNuDL0s5DPFTSNl0-45" value="Recevoir Liste de Notifications Pertinentes" style="html=1;align=center;verticalAlign=top;rounded=1;absoluteArcSize=1;arcSize=10;dashed=0;whiteSpace=wrap;" parent="1" vertex="1">
          <mxGeometry x="1065" y="3108" width="140" height="40" as="geometry" />
        </mxCell>
        <mxCell id="Zbu0JNuDL0s5DPFTSNl0-46" value="Ouvrir Notifications ?" style="rhombus;" parent="1" vertex="1">
          <mxGeometry x="1060" y="3179.14" width="150" height="140" as="geometry" />
        </mxCell>
        <mxCell id="Zbu0JNuDL0s5DPFTSNl0-47" value="&lt;br&gt;" style="edgeLabel;html=1;align=center;verticalAlign=middle;resizable=0;points=[];" parent="1" vertex="1" connectable="0">
          <mxGeometry x="1135" y="3147.997142857143" as="geometry" />
        </mxCell>
        <mxCell id="Zbu0JNuDL0s5DPFTSNl0-48" value="" style="ellipse;html=1;shape=endState;fillColor=strokeColor;" parent="1" vertex="1">
          <mxGeometry x="1280" y="3234.14" width="30" height="30" as="geometry" />
        </mxCell>
        <mxCell id="Zbu0JNuDL0s5DPFTSNl0-49" value="" style="html=1;verticalAlign=bottom;labelBackgroundColor=none;endArrow=block;endFill=1;rounded=0;entryX=0;entryY=0.5;entryDx=0;entryDy=0;exitX=1;exitY=0.5;exitDx=0;exitDy=0;" parent="1" source="Zbu0JNuDL0s5DPFTSNl0-46" target="Zbu0JNuDL0s5DPFTSNl0-48" edge="1">
          <mxGeometry width="160" relative="1" as="geometry">
            <mxPoint x="1328" y="3260.42" as="sourcePoint" />
            <mxPoint x="1213" y="3230.42" as="targetPoint" />
          </mxGeometry>
        </mxCell>
        <mxCell id="Zbu0JNuDL0s5DPFTSNl0-50" value="&lt;br&gt;" style="edgeLabel;html=1;align=center;verticalAlign=middle;resizable=0;points=[];" parent="Zbu0JNuDL0s5DPFTSNl0-49" vertex="1" connectable="0">
          <mxGeometry x="-0.24" relative="1" as="geometry">
            <mxPoint as="offset" />
          </mxGeometry>
        </mxCell>
        <mxCell id="Zbu0JNuDL0s5DPFTSNl0-51" value="Non" style="edgeLabel;html=1;align=center;verticalAlign=middle;resizable=0;points=[];" parent="Zbu0JNuDL0s5DPFTSNl0-49" vertex="1" connectable="0">
          <mxGeometry x="-0.1077" y="-1" relative="1" as="geometry">
            <mxPoint as="offset" />
          </mxGeometry>
        </mxCell>
        <mxCell id="Zbu0JNuDL0s5DPFTSNl0-52" value="" style="html=1;verticalAlign=bottom;labelBackgroundColor=none;endArrow=block;endFill=1;rounded=0;exitX=0.5;exitY=1;exitDx=0;exitDy=0;entryX=0.5;entryY=0;entryDx=0;entryDy=0;" parent="1" source="Zbu0JNuDL0s5DPFTSNl0-46" target="Zbu0JNuDL0s5DPFTSNl0-55" edge="1">
          <mxGeometry width="160" relative="1" as="geometry">
            <mxPoint x="1288" y="3300.42" as="sourcePoint" />
            <mxPoint x="1135" y="3369.14" as="targetPoint" />
          </mxGeometry>
        </mxCell>
        <mxCell id="Zbu0JNuDL0s5DPFTSNl0-53" value="&lt;br&gt;" style="edgeLabel;html=1;align=center;verticalAlign=middle;resizable=0;points=[];" parent="Zbu0JNuDL0s5DPFTSNl0-52" vertex="1" connectable="0">
          <mxGeometry x="-0.24" relative="1" as="geometry">
            <mxPoint as="offset" />
          </mxGeometry>
        </mxCell>
        <mxCell id="Zbu0JNuDL0s5DPFTSNl0-54" value="Oui" style="edgeLabel;html=1;align=center;verticalAlign=middle;resizable=0;points=[];" parent="Zbu0JNuDL0s5DPFTSNl0-52" vertex="1" connectable="0">
          <mxGeometry x="-0.1714" relative="1" as="geometry">
            <mxPoint as="offset" />
          </mxGeometry>
        </mxCell>
        <mxCell id="Zbu0JNuDL0s5DPFTSNl0-55" value="Rediriger vers Contenu + Proposition de Trajet" style="html=1;align=center;verticalAlign=top;rounded=1;absoluteArcSize=1;arcSize=10;dashed=0;whiteSpace=wrap;" parent="1" vertex="1">
          <mxGeometry x="1065" y="3369.14" width="140" height="40" as="geometry" />
        </mxCell>
        <mxCell id="Zbu0JNuDL0s5DPFTSNl0-61" value="" style="html=1;verticalAlign=bottom;labelBackgroundColor=none;endArrow=block;endFill=1;rounded=0;exitX=0.5;exitY=1;exitDx=0;exitDy=0;" parent="1" source="Zbu0JNuDL0s5DPFTSNl0-45" target="Zbu0JNuDL0s5DPFTSNl0-46" edge="1">
          <mxGeometry width="160" relative="1" as="geometry">
            <mxPoint x="1145" y="3078" as="sourcePoint" />
            <mxPoint x="1145" y="3118" as="targetPoint" />
          </mxGeometry>
        </mxCell>
        <mxCell id="Zbu0JNuDL0s5DPFTSNl0-62" value="&lt;br&gt;" style="edgeLabel;html=1;align=center;verticalAlign=middle;resizable=0;points=[];" parent="Zbu0JNuDL0s5DPFTSNl0-61" vertex="1" connectable="0">
          <mxGeometry x="-0.24" relative="1" as="geometry">
            <mxPoint as="offset" />
          </mxGeometry>
        </mxCell>
        <mxCell id="Zbu0JNuDL0s5DPFTSNl0-63" value="" style="html=1;verticalAlign=bottom;labelBackgroundColor=none;endArrow=block;endFill=1;rounded=0;exitX=0.5;exitY=1;exitDx=0;exitDy=0;entryX=0.5;entryY=0;entryDx=0;entryDy=0;" parent="1" source="Zbu0JNuDL0s5DPFTSNl0-55" target="Zbu0JNuDL0s5DPFTSNl0-65" edge="1">
          <mxGeometry width="160" relative="1" as="geometry">
            <mxPoint x="1170" y="3438" as="sourcePoint" />
            <mxPoint x="1135" y="3448" as="targetPoint" />
          </mxGeometry>
        </mxCell>
        <mxCell id="Zbu0JNuDL0s5DPFTSNl0-64" value="&lt;br&gt;" style="edgeLabel;html=1;align=center;verticalAlign=middle;resizable=0;points=[];" parent="Zbu0JNuDL0s5DPFTSNl0-63" vertex="1" connectable="0">
          <mxGeometry x="-0.24" relative="1" as="geometry">
            <mxPoint as="offset" />
          </mxGeometry>
        </mxCell>
        <mxCell id="Zbu0JNuDL0s5DPFTSNl0-65" value="" style="ellipse;html=1;shape=endState;fillColor=strokeColor;" parent="1" vertex="1">
          <mxGeometry x="1120" y="3458" width="30" height="30" as="geometry" />
        </mxCell>
        <mxCell id="9JBmd8GAyPtFFMxEZlvt-1" value="UN COMMERCE ENVOIE UNE NOTIFICATION" style="html=1;whiteSpace=wrap;horizontal=1;verticalAlign=top;fillColor=#f5f5f5;strokeColor=#666666;fontStyle=1;fontColor=#333333;" parent="1" vertex="1">
          <mxGeometry x="870" y="164" width="650" height="1590" as="geometry" />
        </mxCell>
        <mxCell id="9JBmd8GAyPtFFMxEZlvt-2" value="L&#39;utilisateur est authentifié" style="shape=note2;boundedLbl=1;whiteSpace=wrap;html=1;size=25;verticalAlign=top;align=center;" parent="1" vertex="1">
          <mxGeometry x="1240" y="244" width="120" height="60" as="geometry" />
        </mxCell>
        <mxCell id="9JBmd8GAyPtFFMxEZlvt-3" value="Démarer &lt;br&gt;Envoi de Notification" style="html=1;align=center;verticalAlign=top;rounded=1;absoluteArcSize=1;arcSize=10;dashed=0;whiteSpace=wrap;" parent="1" vertex="1">
          <mxGeometry x="1055" y="334" width="140" height="40" as="geometry" />
        </mxCell>
        <mxCell id="9JBmd8GAyPtFFMxEZlvt-4" value="" style="ellipse;fillColor=strokeColor;html=1;" parent="1" vertex="1">
          <mxGeometry x="1110" y="274" width="30" height="30" as="geometry" />
        </mxCell>
        <mxCell id="9JBmd8GAyPtFFMxEZlvt-5" value="" style="endArrow=none;startArrow=none;endFill=0;startFill=0;endSize=8;html=1;verticalAlign=bottom;dashed=1;labelBackgroundColor=none;dashPattern=10 10;rounded=0;entryX=0;entryY=0.5;entryDx=0;entryDy=0;" parent="1" target="9JBmd8GAyPtFFMxEZlvt-4" edge="1">
          <mxGeometry width="160" relative="1" as="geometry">
            <mxPoint x="1240" y="290" as="sourcePoint" />
            <mxPoint x="1330" y="434" as="targetPoint" />
          </mxGeometry>
        </mxCell>
        <mxCell id="9JBmd8GAyPtFFMxEZlvt-6" value="" style="html=1;verticalAlign=bottom;labelBackgroundColor=none;endArrow=block;endFill=1;rounded=0;exitX=0.5;exitY=1;exitDx=0;exitDy=0;entryX=0.5;entryY=0;entryDx=0;entryDy=0;" parent="1" source="9JBmd8GAyPtFFMxEZlvt-4" target="9JBmd8GAyPtFFMxEZlvt-3" edge="1">
          <mxGeometry width="160" relative="1" as="geometry">
            <mxPoint x="1170" y="434" as="sourcePoint" />
            <mxPoint x="1330" y="434" as="targetPoint" />
          </mxGeometry>
        </mxCell>
        <mxCell id="9JBmd8GAyPtFFMxEZlvt-7" value="&lt;br&gt;" style="edgeLabel;html=1;align=center;verticalAlign=middle;resizable=0;points=[];" parent="9JBmd8GAyPtFFMxEZlvt-6" vertex="1" connectable="0">
          <mxGeometry x="-0.24" relative="1" as="geometry">
            <mxPoint as="offset" />
          </mxGeometry>
        </mxCell>
        <mxCell id="9JBmd8GAyPtFFMxEZlvt-8" value="Choisir &#xa;type de notification ?" style="rhombus;" parent="1" vertex="1">
          <mxGeometry x="1050" y="410.19000000000005" width="150" height="140" as="geometry" />
        </mxCell>
        <mxCell id="9JBmd8GAyPtFFMxEZlvt-9" value="" style="html=1;verticalAlign=bottom;labelBackgroundColor=none;endArrow=block;endFill=1;rounded=0;exitX=0.5;exitY=1;exitDx=0;exitDy=0;entryX=0.5;entryY=0;entryDx=0;entryDy=0;" parent="1" source="9JBmd8GAyPtFFMxEZlvt-3" target="9JBmd8GAyPtFFMxEZlvt-8" edge="1">
          <mxGeometry width="160" relative="1" as="geometry">
            <mxPoint x="1149.5" y="390.19000000000005" as="sourcePoint" />
            <mxPoint x="1149.5" y="440.19000000000005" as="targetPoint" />
          </mxGeometry>
        </mxCell>
        <mxCell id="9JBmd8GAyPtFFMxEZlvt-10" value="&lt;br&gt;" style="edgeLabel;html=1;align=center;verticalAlign=middle;resizable=0;points=[];" parent="9JBmd8GAyPtFFMxEZlvt-9" vertex="1" connectable="0">
          <mxGeometry x="-0.24" relative="1" as="geometry">
            <mxPoint as="offset" />
          </mxGeometry>
        </mxCell>
        <mxCell id="9JBmd8GAyPtFFMxEZlvt-12" value="" style="html=1;verticalAlign=bottom;labelBackgroundColor=none;endArrow=block;endFill=1;rounded=0;exitX=1;exitY=0.5;exitDx=0;exitDy=0;entryX=0.587;entryY=0.079;entryDx=0;entryDy=0;entryPerimeter=0;" parent="1" source="9JBmd8GAyPtFFMxEZlvt-8" target="9JBmd8GAyPtFFMxEZlvt-20" edge="1">
          <mxGeometry width="160" relative="1" as="geometry">
            <mxPoint x="1313" y="505.1899999999996" as="sourcePoint" />
            <mxPoint x="1270" y="480" as="targetPoint" />
          </mxGeometry>
        </mxCell>
        <mxCell id="9JBmd8GAyPtFFMxEZlvt-13" value="&lt;br&gt;" style="edgeLabel;html=1;align=center;verticalAlign=middle;resizable=0;points=[];" parent="9JBmd8GAyPtFFMxEZlvt-12" vertex="1" connectable="0">
          <mxGeometry x="-0.24" relative="1" as="geometry">
            <mxPoint as="offset" />
          </mxGeometry>
        </mxCell>
        <mxCell id="9JBmd8GAyPtFFMxEZlvt-14" value="Promotion" style="edgeLabel;html=1;align=center;verticalAlign=middle;resizable=0;points=[];" parent="9JBmd8GAyPtFFMxEZlvt-12" vertex="1" connectable="0">
          <mxGeometry x="-0.1077" y="-1" relative="1" as="geometry">
            <mxPoint as="offset" />
          </mxGeometry>
        </mxCell>
        <mxCell id="9JBmd8GAyPtFFMxEZlvt-15" value="" style="html=1;verticalAlign=bottom;labelBackgroundColor=none;endArrow=block;endFill=1;rounded=0;exitX=0.5;exitY=1;exitDx=0;exitDy=0;" parent="1" source="9JBmd8GAyPtFFMxEZlvt-8" target="9JBmd8GAyPtFFMxEZlvt-20" edge="1">
          <mxGeometry width="160" relative="1" as="geometry">
            <mxPoint x="1198" y="645.19" as="sourcePoint" />
            <mxPoint x="1125" y="604" as="targetPoint" />
          </mxGeometry>
        </mxCell>
        <mxCell id="9JBmd8GAyPtFFMxEZlvt-16" value="&lt;br&gt;" style="edgeLabel;html=1;align=center;verticalAlign=middle;resizable=0;points=[];" parent="9JBmd8GAyPtFFMxEZlvt-15" vertex="1" connectable="0">
          <mxGeometry x="-0.24" relative="1" as="geometry">
            <mxPoint x="20" y="48" as="offset" />
          </mxGeometry>
        </mxCell>
        <mxCell id="9JBmd8GAyPtFFMxEZlvt-18" value="Information" style="edgeLabel;html=1;align=center;verticalAlign=middle;resizable=0;points=[];" parent="9JBmd8GAyPtFFMxEZlvt-15" vertex="1" connectable="0">
          <mxGeometry x="-0.0513" y="1" relative="1" as="geometry">
            <mxPoint as="offset" />
          </mxGeometry>
        </mxCell>
        <mxCell id="9JBmd8GAyPtFFMxEZlvt-20" value="Choisir&#xa;public cible ?" style="rhombus;" parent="1" vertex="1">
          <mxGeometry x="1050" y="634" width="150" height="140" as="geometry" />
        </mxCell>
        <mxCell id="9JBmd8GAyPtFFMxEZlvt-24" value="" style="html=1;verticalAlign=bottom;labelBackgroundColor=none;endArrow=block;endFill=1;rounded=0;entryX=0.75;entryY=0;entryDx=0;entryDy=0;exitX=1;exitY=0.5;exitDx=0;exitDy=0;" parent="1" source="9JBmd8GAyPtFFMxEZlvt-20" target="9JBmd8GAyPtFFMxEZlvt-30" edge="1">
          <mxGeometry width="160" relative="1" as="geometry">
            <mxPoint x="1318" y="775.2799999999997" as="sourcePoint" />
            <mxPoint x="1270" y="764" as="targetPoint" />
          </mxGeometry>
        </mxCell>
        <mxCell id="9JBmd8GAyPtFFMxEZlvt-25" value="&lt;br&gt;" style="edgeLabel;html=1;align=center;verticalAlign=middle;resizable=0;points=[];" parent="9JBmd8GAyPtFFMxEZlvt-24" vertex="1" connectable="0">
          <mxGeometry x="-0.24" relative="1" as="geometry">
            <mxPoint as="offset" />
          </mxGeometry>
        </mxCell>
        <mxCell id="9JBmd8GAyPtFFMxEZlvt-26" value="Tous les clients" style="edgeLabel;html=1;align=center;verticalAlign=middle;resizable=0;points=[];" parent="9JBmd8GAyPtFFMxEZlvt-24" vertex="1" connectable="0">
          <mxGeometry x="-0.1077" y="-1" relative="1" as="geometry">
            <mxPoint as="offset" />
          </mxGeometry>
        </mxCell>
        <mxCell id="9JBmd8GAyPtFFMxEZlvt-27" value="" style="html=1;verticalAlign=bottom;labelBackgroundColor=none;endArrow=block;endFill=1;rounded=0;exitX=0.5;exitY=1;exitDx=0;exitDy=0;entryX=0.5;entryY=0;entryDx=0;entryDy=0;" parent="1" source="9JBmd8GAyPtFFMxEZlvt-20" target="9JBmd8GAyPtFFMxEZlvt-30" edge="1">
          <mxGeometry width="160" relative="1" as="geometry">
            <mxPoint x="1278" y="815.2799999999997" as="sourcePoint" />
            <mxPoint x="1125" y="884" as="targetPoint" />
          </mxGeometry>
        </mxCell>
        <mxCell id="9JBmd8GAyPtFFMxEZlvt-28" value="&lt;br&gt;" style="edgeLabel;html=1;align=center;verticalAlign=middle;resizable=0;points=[];" parent="9JBmd8GAyPtFFMxEZlvt-27" vertex="1" connectable="0">
          <mxGeometry x="-0.24" relative="1" as="geometry">
            <mxPoint as="offset" />
          </mxGeometry>
        </mxCell>
        <mxCell id="9JBmd8GAyPtFFMxEZlvt-29" value="Clients VIP" style="edgeLabel;html=1;align=center;verticalAlign=middle;resizable=0;points=[];" parent="9JBmd8GAyPtFFMxEZlvt-27" vertex="1" connectable="0">
          <mxGeometry x="-0.1714" relative="1" as="geometry">
            <mxPoint as="offset" />
          </mxGeometry>
        </mxCell>
        <mxCell id="9JBmd8GAyPtFFMxEZlvt-30" value="Aperçu&lt;br&gt;du public potentiel" style="html=1;align=center;verticalAlign=top;rounded=1;absoluteArcSize=1;arcSize=10;dashed=0;whiteSpace=wrap;" parent="1" vertex="1">
          <mxGeometry x="1055" y="884" width="140" height="40" as="geometry" />
        </mxCell>
        <mxCell id="9JBmd8GAyPtFFMxEZlvt-31" value="" style="html=1;verticalAlign=bottom;labelBackgroundColor=none;endArrow=block;endFill=1;rounded=0;exitX=0.5;exitY=1;exitDx=0;exitDy=0;entryX=0.5;entryY=0;entryDx=0;entryDy=0;" parent="1" source="9JBmd8GAyPtFFMxEZlvt-30" target="W1_UWrIG4KC0gzuruxfA-12" edge="1">
          <mxGeometry width="160" relative="1" as="geometry">
            <mxPoint x="1125" y="954" as="sourcePoint" />
            <mxPoint x="1125" y="964" as="targetPoint" />
          </mxGeometry>
        </mxCell>
        <mxCell id="9JBmd8GAyPtFFMxEZlvt-32" value="&lt;br&gt;" style="edgeLabel;html=1;align=center;verticalAlign=middle;resizable=0;points=[];" parent="9JBmd8GAyPtFFMxEZlvt-31" vertex="1" connectable="0">
          <mxGeometry x="-0.24" relative="1" as="geometry">
            <mxPoint as="offset" />
          </mxGeometry>
        </mxCell>
        <mxCell id="9JBmd8GAyPtFFMxEZlvt-35" value="&lt;br&gt;" style="edgeLabel;html=1;align=center;verticalAlign=middle;resizable=0;points=[];" parent="1" vertex="1" connectable="0">
          <mxGeometry x="1125" y="1003.9971428571425" as="geometry" />
        </mxCell>
        <mxCell id="9JBmd8GAyPtFFMxEZlvt-44" value="" style="html=1;verticalAlign=bottom;labelBackgroundColor=none;endArrow=block;endFill=1;rounded=0;exitX=0.5;exitY=1;exitDx=0;exitDy=0;" parent="1" edge="1">
          <mxGeometry width="160" relative="1" as="geometry">
            <mxPoint x="1125" y="1004" as="sourcePoint" />
            <mxPoint x="1135" y="974" as="targetPoint" />
          </mxGeometry>
        </mxCell>
        <mxCell id="9JBmd8GAyPtFFMxEZlvt-45" value="&lt;br&gt;" style="edgeLabel;html=1;align=center;verticalAlign=middle;resizable=0;points=[];" parent="9JBmd8GAyPtFFMxEZlvt-44" vertex="1" connectable="0">
          <mxGeometry x="-0.24" relative="1" as="geometry">
            <mxPoint as="offset" />
          </mxGeometry>
        </mxCell>
        <mxCell id="W1_UWrIG4KC0gzuruxfA-2" value="" style="html=1;verticalAlign=bottom;labelBackgroundColor=none;endArrow=block;endFill=1;rounded=0;exitX=0;exitY=0.5;exitDx=0;exitDy=0;" parent="1" source="9JBmd8GAyPtFFMxEZlvt-8" target="9JBmd8GAyPtFFMxEZlvt-20" edge="1">
          <mxGeometry width="160" relative="1" as="geometry">
            <mxPoint x="1135" y="560" as="sourcePoint" />
            <mxPoint x="1135" y="614" as="targetPoint" />
          </mxGeometry>
        </mxCell>
        <mxCell id="W1_UWrIG4KC0gzuruxfA-3" value="&lt;br&gt;" style="edgeLabel;html=1;align=center;verticalAlign=middle;resizable=0;points=[];" parent="W1_UWrIG4KC0gzuruxfA-2" vertex="1" connectable="0">
          <mxGeometry x="-0.24" relative="1" as="geometry">
            <mxPoint x="20" y="48" as="offset" />
          </mxGeometry>
        </mxCell>
        <mxCell id="W1_UWrIG4KC0gzuruxfA-4" value="Urgence" style="edgeLabel;html=1;align=center;verticalAlign=middle;resizable=0;points=[];" parent="W1_UWrIG4KC0gzuruxfA-2" vertex="1" connectable="0">
          <mxGeometry x="-0.0513" y="1" relative="1" as="geometry">
            <mxPoint as="offset" />
          </mxGeometry>
        </mxCell>
        <mxCell id="W1_UWrIG4KC0gzuruxfA-5" value="" style="html=1;verticalAlign=bottom;labelBackgroundColor=none;endArrow=block;endFill=1;rounded=0;exitX=0;exitY=0.5;exitDx=0;exitDy=0;entryX=0.25;entryY=0;entryDx=0;entryDy=0;" parent="1" source="9JBmd8GAyPtFFMxEZlvt-20" target="9JBmd8GAyPtFFMxEZlvt-30" edge="1">
          <mxGeometry width="160" relative="1" as="geometry">
            <mxPoint x="1135" y="784" as="sourcePoint" />
            <mxPoint x="1135" y="894" as="targetPoint" />
          </mxGeometry>
        </mxCell>
        <mxCell id="W1_UWrIG4KC0gzuruxfA-6" value="&lt;br&gt;" style="edgeLabel;html=1;align=center;verticalAlign=middle;resizable=0;points=[];" parent="W1_UWrIG4KC0gzuruxfA-5" vertex="1" connectable="0">
          <mxGeometry x="-0.24" relative="1" as="geometry">
            <mxPoint as="offset" />
          </mxGeometry>
        </mxCell>
        <mxCell id="W1_UWrIG4KC0gzuruxfA-7" value="Clients VIP" style="edgeLabel;html=1;align=center;verticalAlign=middle;resizable=0;points=[];" parent="W1_UWrIG4KC0gzuruxfA-5" vertex="1" connectable="0">
          <mxGeometry x="-0.1714" relative="1" as="geometry">
            <mxPoint as="offset" />
          </mxGeometry>
        </mxCell>
        <mxCell id="W1_UWrIG4KC0gzuruxfA-12" value="Accepte-ils &#xa;les notifications ?" style="rhombus;" parent="1" vertex="1">
          <mxGeometry x="1050" y="962" width="150" height="140" as="geometry" />
        </mxCell>
        <mxCell id="xw4OrcPFuX7Us6D-jjdy-1" value="" style="html=1;verticalAlign=bottom;labelBackgroundColor=none;endArrow=block;endFill=1;rounded=0;exitX=1;exitY=0.5;exitDx=0;exitDy=0;entryX=1;entryY=0.5;entryDx=0;entryDy=0;" parent="1" source="W1_UWrIG4KC0gzuruxfA-12" target="9JBmd8GAyPtFFMxEZlvt-8" edge="1">
          <mxGeometry width="160" relative="1" as="geometry">
            <mxPoint x="1210" y="714" as="sourcePoint" />
            <mxPoint x="1170" y="894" as="targetPoint" />
            <Array as="points">
              <mxPoint x="1390" y="744" />
            </Array>
          </mxGeometry>
        </mxCell>
        <mxCell id="xw4OrcPFuX7Us6D-jjdy-2" value="&lt;br&gt;" style="edgeLabel;html=1;align=center;verticalAlign=middle;resizable=0;points=[];" parent="xw4OrcPFuX7Us6D-jjdy-1" vertex="1" connectable="0">
          <mxGeometry x="-0.24" relative="1" as="geometry">
            <mxPoint as="offset" />
          </mxGeometry>
        </mxCell>
        <mxCell id="xw4OrcPFuX7Us6D-jjdy-3" value="non" style="edgeLabel;html=1;align=center;verticalAlign=middle;resizable=0;points=[];" parent="xw4OrcPFuX7Us6D-jjdy-1" vertex="1" connectable="0">
          <mxGeometry x="-0.1077" y="-1" relative="1" as="geometry">
            <mxPoint as="offset" />
          </mxGeometry>
        </mxCell>
        <mxCell id="Qgn0cOdtuLcwaEyizgEp-5" value="Rédiger&lt;br&gt;contenu notification" style="html=1;align=center;verticalAlign=top;rounded=1;absoluteArcSize=1;arcSize=10;dashed=0;whiteSpace=wrap;" parent="1" vertex="1">
          <mxGeometry x="1055" y="1144" width="140" height="40" as="geometry" />
        </mxCell>
        <mxCell id="Qgn0cOdtuLcwaEyizgEp-7" value="Envoyer la notification" style="html=1;align=center;verticalAlign=top;rounded=1;absoluteArcSize=1;arcSize=10;dashed=0;whiteSpace=wrap;" parent="1" vertex="1">
          <mxGeometry x="1055" y="1434" width="140" height="40" as="geometry" />
        </mxCell>
        <mxCell id="Qgn0cOdtuLcwaEyizgEp-8" value="Confirmation &lt;br&gt;de la réception" style="html=1;align=center;verticalAlign=top;rounded=1;absoluteArcSize=1;arcSize=10;dashed=0;whiteSpace=wrap;" parent="1" vertex="1">
          <mxGeometry x="1055" y="1514" width="140" height="40" as="geometry" />
        </mxCell>
        <mxCell id="Qgn0cOdtuLcwaEyizgEp-9" value="Planifier l&#39;envoi" style="rhombus;" parent="1" vertex="1">
          <mxGeometry x="1050" y="1234" width="150" height="140" as="geometry" />
        </mxCell>
        <mxCell id="Qgn0cOdtuLcwaEyizgEp-10" value="" style="html=1;verticalAlign=bottom;labelBackgroundColor=none;endArrow=block;endFill=1;rounded=0;exitX=0.5;exitY=1;exitDx=0;exitDy=0;" parent="1" source="W1_UWrIG4KC0gzuruxfA-12" target="Qgn0cOdtuLcwaEyizgEp-5" edge="1">
          <mxGeometry width="160" relative="1" as="geometry">
            <mxPoint x="1135" y="934" as="sourcePoint" />
            <mxPoint x="1135" y="972" as="targetPoint" />
          </mxGeometry>
        </mxCell>
        <mxCell id="Qgn0cOdtuLcwaEyizgEp-11" value="&lt;br&gt;" style="edgeLabel;html=1;align=center;verticalAlign=middle;resizable=0;points=[];" parent="Qgn0cOdtuLcwaEyizgEp-10" vertex="1" connectable="0">
          <mxGeometry x="-0.24" relative="1" as="geometry">
            <mxPoint as="offset" />
          </mxGeometry>
        </mxCell>
        <mxCell id="Qgn0cOdtuLcwaEyizgEp-12" value="oui" style="edgeLabel;html=1;align=center;verticalAlign=middle;resizable=0;points=[];" parent="Qgn0cOdtuLcwaEyizgEp-10" vertex="1" connectable="0">
          <mxGeometry x="-0.2381" relative="1" as="geometry">
            <mxPoint as="offset" />
          </mxGeometry>
        </mxCell>
        <mxCell id="Qgn0cOdtuLcwaEyizgEp-13" value="" style="html=1;verticalAlign=bottom;labelBackgroundColor=none;endArrow=block;endFill=1;rounded=0;exitX=0.5;exitY=1;exitDx=0;exitDy=0;entryX=0.5;entryY=0;entryDx=0;entryDy=0;" parent="1" source="Qgn0cOdtuLcwaEyizgEp-5" target="Qgn0cOdtuLcwaEyizgEp-9" edge="1">
          <mxGeometry width="160" relative="1" as="geometry">
            <mxPoint x="1135" y="934" as="sourcePoint" />
            <mxPoint x="1135" y="972" as="targetPoint" />
          </mxGeometry>
        </mxCell>
        <mxCell id="Qgn0cOdtuLcwaEyizgEp-14" value="&lt;br&gt;" style="edgeLabel;html=1;align=center;verticalAlign=middle;resizable=0;points=[];" parent="Qgn0cOdtuLcwaEyizgEp-13" vertex="1" connectable="0">
          <mxGeometry x="-0.24" relative="1" as="geometry">
            <mxPoint as="offset" />
          </mxGeometry>
        </mxCell>
        <mxCell id="Qgn0cOdtuLcwaEyizgEp-15" value="" style="html=1;verticalAlign=bottom;labelBackgroundColor=none;endArrow=block;endFill=1;rounded=0;exitX=0.5;exitY=1;exitDx=0;exitDy=0;" parent="1" source="Qgn0cOdtuLcwaEyizgEp-9" target="Qgn0cOdtuLcwaEyizgEp-7" edge="1">
          <mxGeometry width="160" relative="1" as="geometry">
            <mxPoint x="1135" y="1194" as="sourcePoint" />
            <mxPoint x="1135" y="1244" as="targetPoint" />
          </mxGeometry>
        </mxCell>
        <mxCell id="Qgn0cOdtuLcwaEyizgEp-16" value="&lt;br&gt;" style="edgeLabel;html=1;align=center;verticalAlign=middle;resizable=0;points=[];" parent="Qgn0cOdtuLcwaEyizgEp-15" vertex="1" connectable="0">
          <mxGeometry x="-0.24" relative="1" as="geometry">
            <mxPoint as="offset" />
          </mxGeometry>
        </mxCell>
        <mxCell id="Qgn0cOdtuLcwaEyizgEp-17" value="Immédiat" style="edgeLabel;html=1;align=center;verticalAlign=middle;resizable=0;points=[];" parent="Qgn0cOdtuLcwaEyizgEp-15" vertex="1" connectable="0">
          <mxGeometry x="-0.0333" y="-1" relative="1" as="geometry">
            <mxPoint as="offset" />
          </mxGeometry>
        </mxCell>
        <mxCell id="Qgn0cOdtuLcwaEyizgEp-18" value="Paramétrer la date et l&#39;heure de l&#39;envoi" style="html=1;align=center;verticalAlign=top;rounded=1;absoluteArcSize=1;arcSize=10;dashed=0;whiteSpace=wrap;" parent="1" vertex="1">
          <mxGeometry x="1270" y="1284" width="140" height="40" as="geometry" />
        </mxCell>
        <mxCell id="Qgn0cOdtuLcwaEyizgEp-19" value="" style="html=1;verticalAlign=bottom;labelBackgroundColor=none;endArrow=block;endFill=1;rounded=0;exitX=1;exitY=0.5;exitDx=0;exitDy=0;entryX=0;entryY=0.5;entryDx=0;entryDy=0;" parent="1" source="Qgn0cOdtuLcwaEyizgEp-9" target="Qgn0cOdtuLcwaEyizgEp-18" edge="1">
          <mxGeometry width="160" relative="1" as="geometry">
            <mxPoint x="1135" y="1194" as="sourcePoint" />
            <mxPoint x="1135" y="1244" as="targetPoint" />
          </mxGeometry>
        </mxCell>
        <mxCell id="Qgn0cOdtuLcwaEyizgEp-20" value="&lt;br&gt;" style="edgeLabel;html=1;align=center;verticalAlign=middle;resizable=0;points=[];" parent="Qgn0cOdtuLcwaEyizgEp-19" vertex="1" connectable="0">
          <mxGeometry x="-0.24" relative="1" as="geometry">
            <mxPoint as="offset" />
          </mxGeometry>
        </mxCell>
        <mxCell id="Qgn0cOdtuLcwaEyizgEp-21" value="Différé" style="edgeLabel;html=1;align=center;verticalAlign=middle;resizable=0;points=[];" parent="Qgn0cOdtuLcwaEyizgEp-19" vertex="1" connectable="0">
          <mxGeometry y="2" relative="1" as="geometry">
            <mxPoint as="offset" />
          </mxGeometry>
        </mxCell>
        <mxCell id="Qgn0cOdtuLcwaEyizgEp-22" value="" style="html=1;verticalAlign=bottom;labelBackgroundColor=none;endArrow=block;endFill=1;rounded=0;exitX=0.443;exitY=1;exitDx=0;exitDy=0;entryX=1;entryY=0;entryDx=0;entryDy=0;exitPerimeter=0;" parent="1" source="Qgn0cOdtuLcwaEyizgEp-18" target="Qgn0cOdtuLcwaEyizgEp-7" edge="1">
          <mxGeometry width="160" relative="1" as="geometry">
            <mxPoint x="1135" y="1194" as="sourcePoint" />
            <mxPoint x="1135" y="1244" as="targetPoint" />
          </mxGeometry>
        </mxCell>
        <mxCell id="Qgn0cOdtuLcwaEyizgEp-23" value="&lt;br&gt;" style="edgeLabel;html=1;align=center;verticalAlign=middle;resizable=0;points=[];" parent="Qgn0cOdtuLcwaEyizgEp-22" vertex="1" connectable="0">
          <mxGeometry x="-0.24" relative="1" as="geometry">
            <mxPoint as="offset" />
          </mxGeometry>
        </mxCell>
        <mxCell id="Qgn0cOdtuLcwaEyizgEp-24" value="" style="html=1;verticalAlign=bottom;labelBackgroundColor=none;endArrow=block;endFill=1;rounded=0;exitX=0.5;exitY=1;exitDx=0;exitDy=0;entryX=0.5;entryY=0;entryDx=0;entryDy=0;" parent="1" source="Qgn0cOdtuLcwaEyizgEp-7" target="Qgn0cOdtuLcwaEyizgEp-8" edge="1">
          <mxGeometry width="160" relative="1" as="geometry">
            <mxPoint x="1135" y="1194" as="sourcePoint" />
            <mxPoint x="1135" y="1244" as="targetPoint" />
          </mxGeometry>
        </mxCell>
        <mxCell id="Qgn0cOdtuLcwaEyizgEp-25" value="&lt;br&gt;" style="edgeLabel;html=1;align=center;verticalAlign=middle;resizable=0;points=[];" parent="Qgn0cOdtuLcwaEyizgEp-24" vertex="1" connectable="0">
          <mxGeometry x="-0.24" relative="1" as="geometry">
            <mxPoint as="offset" />
          </mxGeometry>
        </mxCell>
        <mxCell id="Qgn0cOdtuLcwaEyizgEp-26" value="Enregistrer l&#39;action dans le journal des activités du commerce" style="html=1;align=center;verticalAlign=top;rounded=1;absoluteArcSize=1;arcSize=10;dashed=0;whiteSpace=wrap;" parent="1" vertex="1">
          <mxGeometry x="1055" y="1594" width="140" height="50" as="geometry" />
        </mxCell>
        <mxCell id="Qgn0cOdtuLcwaEyizgEp-27" value="" style="html=1;verticalAlign=bottom;labelBackgroundColor=none;endArrow=block;endFill=1;rounded=0;exitX=0.5;exitY=1;exitDx=0;exitDy=0;entryX=0.5;entryY=0;entryDx=0;entryDy=0;" parent="1" source="Qgn0cOdtuLcwaEyizgEp-8" target="Qgn0cOdtuLcwaEyizgEp-26" edge="1">
          <mxGeometry width="160" relative="1" as="geometry">
            <mxPoint x="1135" y="1484" as="sourcePoint" />
            <mxPoint x="1135" y="1534" as="targetPoint" />
          </mxGeometry>
        </mxCell>
        <mxCell id="Qgn0cOdtuLcwaEyizgEp-28" value="&lt;br&gt;" style="edgeLabel;html=1;align=center;verticalAlign=middle;resizable=0;points=[];" parent="Qgn0cOdtuLcwaEyizgEp-27" vertex="1" connectable="0">
          <mxGeometry x="-0.24" relative="1" as="geometry">
            <mxPoint as="offset" />
          </mxGeometry>
        </mxCell>
        <mxCell id="Qgn0cOdtuLcwaEyizgEp-29" value="" style="html=1;verticalAlign=bottom;labelBackgroundColor=none;endArrow=block;endFill=1;rounded=0;entryX=0.5;entryY=0;entryDx=0;entryDy=0;" parent="1" target="Qgn0cOdtuLcwaEyizgEp-31" edge="1">
          <mxGeometry width="160" relative="1" as="geometry">
            <mxPoint x="1125" y="1644" as="sourcePoint" />
            <mxPoint x="1125" y="1683" as="targetPoint" />
          </mxGeometry>
        </mxCell>
        <mxCell id="Qgn0cOdtuLcwaEyizgEp-30" value="&lt;br&gt;" style="edgeLabel;html=1;align=center;verticalAlign=middle;resizable=0;points=[];" parent="Qgn0cOdtuLcwaEyizgEp-29" vertex="1" connectable="0">
          <mxGeometry x="-0.24" relative="1" as="geometry">
            <mxPoint as="offset" />
          </mxGeometry>
        </mxCell>
        <mxCell id="Qgn0cOdtuLcwaEyizgEp-31" value="" style="ellipse;html=1;shape=endState;fillColor=strokeColor;" parent="1" vertex="1">
          <mxGeometry x="1110" y="1686.5" width="30" height="30" as="geometry" />
        </mxCell>
        <mxCell id="HfoTt-LAjk5S3gJhWQbv-1" value="CHANGER LE RAYON DE PROXIMITÉ" style="html=1;whiteSpace=wrap;horizontal=1;verticalAlign=top;fillColor=#d5e8d4;strokeColor=#82b366;fontStyle=1" parent="1" vertex="1">
          <mxGeometry x="880" y="3660" width="650" height="720" as="geometry" />
        </mxCell>
        <mxCell id="HfoTt-LAjk5S3gJhWQbv-2" value="L&#39;utilisateur est authentifié" style="shape=note2;boundedLbl=1;whiteSpace=wrap;html=1;size=25;verticalAlign=top;align=center;" parent="1" vertex="1">
          <mxGeometry x="1241" y="3755" width="120" height="60" as="geometry" />
        </mxCell>
        <mxCell id="HfoTt-LAjk5S3gJhWQbv-3" value="Accéder au Menu Préférences" style="html=1;align=center;verticalAlign=top;rounded=1;absoluteArcSize=1;arcSize=10;dashed=0;whiteSpace=wrap;" parent="1" vertex="1">
          <mxGeometry x="1065" y="3820" width="140" height="40" as="geometry" />
        </mxCell>
        <mxCell id="HfoTt-LAjk5S3gJhWQbv-4" value="" style="ellipse;fillColor=strokeColor;html=1;" parent="1" vertex="1">
          <mxGeometry x="1120" y="3770" width="30" height="30" as="geometry" />
        </mxCell>
        <mxCell id="HfoTt-LAjk5S3gJhWQbv-5" value="" style="endArrow=none;startArrow=none;endFill=0;startFill=0;endSize=8;html=1;verticalAlign=bottom;dashed=1;labelBackgroundColor=none;dashPattern=10 10;rounded=0;entryX=0;entryY=0.5;entryDx=0;entryDy=0;exitX=0;exitY=0.5;exitDx=0;exitDy=0;exitPerimeter=0;" parent="1" source="HfoTt-LAjk5S3gJhWQbv-2" target="HfoTt-LAjk5S3gJhWQbv-4" edge="1">
          <mxGeometry width="160" relative="1" as="geometry">
            <mxPoint x="1280" y="3785" as="sourcePoint" />
            <mxPoint x="1340" y="3930" as="targetPoint" />
          </mxGeometry>
        </mxCell>
        <mxCell id="HfoTt-LAjk5S3gJhWQbv-6" value="" style="html=1;verticalAlign=bottom;labelBackgroundColor=none;endArrow=block;endFill=1;rounded=0;exitX=0.5;exitY=1;exitDx=0;exitDy=0;entryX=0.5;entryY=0;entryDx=0;entryDy=0;" parent="1" source="HfoTt-LAjk5S3gJhWQbv-4" target="HfoTt-LAjk5S3gJhWQbv-3" edge="1">
          <mxGeometry width="160" relative="1" as="geometry">
            <mxPoint x="1180" y="3930" as="sourcePoint" />
            <mxPoint x="1340" y="3930" as="targetPoint" />
          </mxGeometry>
        </mxCell>
        <mxCell id="HfoTt-LAjk5S3gJhWQbv-7" value="&lt;br&gt;" style="edgeLabel;html=1;align=center;verticalAlign=middle;resizable=0;points=[];" parent="HfoTt-LAjk5S3gJhWQbv-6" vertex="1" connectable="0">
          <mxGeometry x="-0.24" relative="1" as="geometry">
            <mxPoint as="offset" />
          </mxGeometry>
        </mxCell>
        <mxCell id="HfoTt-LAjk5S3gJhWQbv-49" value="Choisir &lt;br&gt;Valeur du Rayon" style="html=1;align=center;verticalAlign=top;rounded=1;absoluteArcSize=1;arcSize=10;dashed=0;whiteSpace=wrap;" parent="1" vertex="1">
          <mxGeometry x="1065" y="3900" width="140" height="40" as="geometry" />
        </mxCell>
        <mxCell id="HfoTt-LAjk5S3gJhWQbv-50" value="Distance &gt; 5km?" style="rhombus;" parent="1" vertex="1">
          <mxGeometry x="1060" y="3980" width="150" height="140" as="geometry" />
        </mxCell>
        <mxCell id="HfoTt-LAjk5S3gJhWQbv-51" value="" style="html=1;verticalAlign=bottom;labelBackgroundColor=none;endArrow=block;endFill=1;rounded=0;exitX=0.5;exitY=1;exitDx=0;exitDy=0;entryX=0.5;entryY=0;entryDx=0;entryDy=0;" parent="1" source="HfoTt-LAjk5S3gJhWQbv-50" target="HfoTt-LAjk5S3gJhWQbv-63" edge="1">
          <mxGeometry width="160" relative="1" as="geometry">
            <mxPoint x="1155" y="4640" as="sourcePoint" />
            <mxPoint x="1135" y="4170" as="targetPoint" />
          </mxGeometry>
        </mxCell>
        <mxCell id="HfoTt-LAjk5S3gJhWQbv-52" value="&lt;br&gt;" style="edgeLabel;html=1;align=center;verticalAlign=middle;resizable=0;points=[];" parent="HfoTt-LAjk5S3gJhWQbv-51" vertex="1" connectable="0">
          <mxGeometry x="-0.24" relative="1" as="geometry">
            <mxPoint x="20" y="48" as="offset" />
          </mxGeometry>
        </mxCell>
        <mxCell id="HfoTt-LAjk5S3gJhWQbv-61" value="5km ou moins" style="edgeLabel;html=1;align=center;verticalAlign=middle;resizable=0;points=[];" parent="HfoTt-LAjk5S3gJhWQbv-51" vertex="1" connectable="0">
          <mxGeometry x="-0.28" y="1" relative="1" as="geometry">
            <mxPoint as="offset" />
          </mxGeometry>
        </mxCell>
        <mxCell id="HfoTt-LAjk5S3gJhWQbv-55" value="" style="html=1;verticalAlign=bottom;labelBackgroundColor=none;endArrow=block;endFill=1;rounded=0;entryX=0;entryY=0.5;entryDx=0;entryDy=0;" parent="1" target="HfoTt-LAjk5S3gJhWQbv-62" edge="1">
          <mxGeometry width="160" relative="1" as="geometry">
            <mxPoint x="1210" y="4050" as="sourcePoint" />
            <mxPoint x="1310" y="4050" as="targetPoint" />
          </mxGeometry>
        </mxCell>
        <mxCell id="HfoTt-LAjk5S3gJhWQbv-56" value="&lt;br&gt;" style="edgeLabel;html=1;align=center;verticalAlign=middle;resizable=0;points=[];" parent="HfoTt-LAjk5S3gJhWQbv-55" vertex="1" connectable="0">
          <mxGeometry x="-0.24" relative="1" as="geometry">
            <mxPoint as="offset" />
          </mxGeometry>
        </mxCell>
        <mxCell id="HfoTt-LAjk5S3gJhWQbv-60" value="Plus de 5km" style="edgeLabel;html=1;align=center;verticalAlign=middle;resizable=0;points=[];" parent="HfoTt-LAjk5S3gJhWQbv-55" vertex="1" connectable="0">
          <mxGeometry x="0.1" y="1" relative="1" as="geometry">
            <mxPoint as="offset" />
          </mxGeometry>
        </mxCell>
        <mxCell id="HfoTt-LAjk5S3gJhWQbv-62" value="&lt;div style=&quot;text-align: left;&quot;&gt;&lt;span style=&quot;background-color: initial;&quot;&gt;Alerte Distance &amp;gt; 5km&lt;/span&gt;&lt;/div&gt;" style="html=1;align=center;verticalAlign=top;rounded=1;absoluteArcSize=1;arcSize=10;dashed=0;whiteSpace=wrap;" parent="1" vertex="1">
          <mxGeometry x="1320" y="4030" width="140" height="40" as="geometry" />
        </mxCell>
        <mxCell id="HfoTt-LAjk5S3gJhWQbv-63" value=" Enregistrer Modifications" style="html=1;align=center;verticalAlign=top;rounded=1;absoluteArcSize=1;arcSize=10;dashed=0;whiteSpace=wrap;" parent="1" vertex="1">
          <mxGeometry x="1065" y="4170" width="140" height="40" as="geometry" />
        </mxCell>
        <mxCell id="HfoTt-LAjk5S3gJhWQbv-64" value=" Rafraîchir Écran" style="html=1;align=center;verticalAlign=top;rounded=1;absoluteArcSize=1;arcSize=10;dashed=0;whiteSpace=wrap;" parent="1" vertex="1">
          <mxGeometry x="1065" y="4250" width="140" height="40" as="geometry" />
        </mxCell>
        <mxCell id="HfoTt-LAjk5S3gJhWQbv-65" value="" style="html=1;verticalAlign=bottom;labelBackgroundColor=none;endArrow=block;endFill=1;rounded=0;exitX=0.5;exitY=1;exitDx=0;exitDy=0;" parent="1" source="HfoTt-LAjk5S3gJhWQbv-3" target="HfoTt-LAjk5S3gJhWQbv-49" edge="1">
          <mxGeometry width="160" relative="1" as="geometry">
            <mxPoint x="1145" y="3810" as="sourcePoint" />
            <mxPoint x="1145" y="3830" as="targetPoint" />
          </mxGeometry>
        </mxCell>
        <mxCell id="HfoTt-LAjk5S3gJhWQbv-66" value="&lt;br&gt;" style="edgeLabel;html=1;align=center;verticalAlign=middle;resizable=0;points=[];" parent="HfoTt-LAjk5S3gJhWQbv-65" vertex="1" connectable="0">
          <mxGeometry x="-0.24" relative="1" as="geometry">
            <mxPoint as="offset" />
          </mxGeometry>
        </mxCell>
        <mxCell id="HfoTt-LAjk5S3gJhWQbv-67" value="" style="html=1;verticalAlign=bottom;labelBackgroundColor=none;endArrow=block;endFill=1;rounded=0;exitX=0.5;exitY=1;exitDx=0;exitDy=0;entryX=0.5;entryY=0;entryDx=0;entryDy=0;" parent="1" source="HfoTt-LAjk5S3gJhWQbv-49" target="HfoTt-LAjk5S3gJhWQbv-50" edge="1">
          <mxGeometry width="160" relative="1" as="geometry">
            <mxPoint x="1145" y="3870" as="sourcePoint" />
            <mxPoint x="1145" y="3910" as="targetPoint" />
          </mxGeometry>
        </mxCell>
        <mxCell id="HfoTt-LAjk5S3gJhWQbv-68" value="&lt;br&gt;" style="edgeLabel;html=1;align=center;verticalAlign=middle;resizable=0;points=[];" parent="HfoTt-LAjk5S3gJhWQbv-67" vertex="1" connectable="0">
          <mxGeometry x="-0.24" relative="1" as="geometry">
            <mxPoint as="offset" />
          </mxGeometry>
        </mxCell>
        <mxCell id="HfoTt-LAjk5S3gJhWQbv-69" value="" style="html=1;verticalAlign=bottom;labelBackgroundColor=none;endArrow=block;endFill=1;rounded=0;exitX=0.5;exitY=1;exitDx=0;exitDy=0;entryX=0.5;entryY=0;entryDx=0;entryDy=0;" parent="1" source="HfoTt-LAjk5S3gJhWQbv-63" target="HfoTt-LAjk5S3gJhWQbv-64" edge="1">
          <mxGeometry width="160" relative="1" as="geometry">
            <mxPoint x="1145" y="3950" as="sourcePoint" />
            <mxPoint x="1145" y="3990" as="targetPoint" />
          </mxGeometry>
        </mxCell>
        <mxCell id="HfoTt-LAjk5S3gJhWQbv-70" value="&lt;br&gt;" style="edgeLabel;html=1;align=center;verticalAlign=middle;resizable=0;points=[];" parent="HfoTt-LAjk5S3gJhWQbv-69" vertex="1" connectable="0">
          <mxGeometry x="-0.24" relative="1" as="geometry">
            <mxPoint as="offset" />
          </mxGeometry>
        </mxCell>
        <mxCell id="HfoTt-LAjk5S3gJhWQbv-71" value="" style="html=1;verticalAlign=bottom;labelBackgroundColor=none;endArrow=block;endFill=1;rounded=0;exitX=0.5;exitY=1;exitDx=0;exitDy=0;entryX=0.5;entryY=0;entryDx=0;entryDy=0;" parent="1" source="HfoTt-LAjk5S3gJhWQbv-64" target="HfoTt-LAjk5S3gJhWQbv-73" edge="1">
          <mxGeometry width="160" relative="1" as="geometry">
            <mxPoint x="1135" y="4320" as="sourcePoint" />
            <mxPoint x="1130" y="4388.8099999999995" as="targetPoint" />
          </mxGeometry>
        </mxCell>
        <mxCell id="HfoTt-LAjk5S3gJhWQbv-72" value="&lt;br&gt;" style="edgeLabel;html=1;align=center;verticalAlign=middle;resizable=0;points=[];" parent="HfoTt-LAjk5S3gJhWQbv-71" vertex="1" connectable="0">
          <mxGeometry x="-0.24" relative="1" as="geometry">
            <mxPoint as="offset" />
          </mxGeometry>
        </mxCell>
        <mxCell id="HfoTt-LAjk5S3gJhWQbv-73" value="" style="ellipse;html=1;shape=endState;fillColor=strokeColor;" parent="1" vertex="1">
          <mxGeometry x="1120" y="4330" width="30" height="30" as="geometry" />
        </mxCell>
        <mxCell id="HfoTt-LAjk5S3gJhWQbv-74" value="MODÉLISER LA CRÉATION D’UN NOUVEAU COMMERCE" style="html=1;whiteSpace=wrap;horizontal=1;verticalAlign=top;fillColor=#ffe6cc;strokeColor=#d79b00;fontStyle=1" parent="1" vertex="1">
          <mxGeometry x="880" y="4686" width="650" height="1150" as="geometry" />
        </mxCell>
        <mxCell id="HfoTt-LAjk5S3gJhWQbv-76" value="Connexion en tant qu’utilisateur" style="html=1;align=center;verticalAlign=top;rounded=1;absoluteArcSize=1;arcSize=10;dashed=0;whiteSpace=wrap;" parent="1" vertex="1">
          <mxGeometry x="935" y="4780" width="140" height="40" as="geometry" />
        </mxCell>
        <mxCell id="HfoTt-LAjk5S3gJhWQbv-77" value="" style="ellipse;fillColor=strokeColor;html=1;" parent="1" vertex="1">
          <mxGeometry x="990" y="4730" width="30" height="30" as="geometry" />
        </mxCell>
        <mxCell id="HfoTt-LAjk5S3gJhWQbv-79" value="" style="html=1;verticalAlign=bottom;labelBackgroundColor=none;endArrow=block;endFill=1;rounded=0;exitX=0.5;exitY=1;exitDx=0;exitDy=0;entryX=0.5;entryY=0;entryDx=0;entryDy=0;" parent="1" source="HfoTt-LAjk5S3gJhWQbv-77" target="HfoTt-LAjk5S3gJhWQbv-76" edge="1">
          <mxGeometry width="160" relative="1" as="geometry">
            <mxPoint x="1050" y="4890" as="sourcePoint" />
            <mxPoint x="1210" y="4890" as="targetPoint" />
          </mxGeometry>
        </mxCell>
        <mxCell id="HfoTt-LAjk5S3gJhWQbv-80" value="&lt;br&gt;" style="edgeLabel;html=1;align=center;verticalAlign=middle;resizable=0;points=[];" parent="HfoTt-LAjk5S3gJhWQbv-79" vertex="1" connectable="0">
          <mxGeometry x="-0.24" relative="1" as="geometry">
            <mxPoint as="offset" />
          </mxGeometry>
        </mxCell>
        <mxCell id="HfoTt-LAjk5S3gJhWQbv-81" value="Accès au Panneau Commerce" style="html=1;align=center;verticalAlign=top;rounded=1;absoluteArcSize=1;arcSize=10;dashed=0;whiteSpace=wrap;" parent="1" vertex="1">
          <mxGeometry x="935" y="4836" width="140" height="40" as="geometry" />
        </mxCell>
        <mxCell id="HfoTt-LAjk5S3gJhWQbv-82" value="Inscrit &#xa;comme Commerce?" style="rhombus;" parent="1" vertex="1">
          <mxGeometry x="930" y="4916" width="150" height="140" as="geometry" />
        </mxCell>
        <mxCell id="HfoTt-LAjk5S3gJhWQbv-83" value="" style="html=1;verticalAlign=bottom;labelBackgroundColor=none;endArrow=block;endFill=1;rounded=0;exitX=0.5;exitY=1;exitDx=0;exitDy=0;entryX=0.5;entryY=0;entryDx=0;entryDy=0;" parent="1" source="HfoTt-LAjk5S3gJhWQbv-82" target="HfoTt-LAjk5S3gJhWQbv-108" edge="1">
          <mxGeometry width="160" relative="1" as="geometry">
            <mxPoint x="1025" y="5576" as="sourcePoint" />
            <mxPoint x="1005" y="5106" as="targetPoint" />
          </mxGeometry>
        </mxCell>
        <mxCell id="HfoTt-LAjk5S3gJhWQbv-85" value="oui" style="edgeLabel;html=1;align=center;verticalAlign=middle;resizable=0;points=[];" parent="HfoTt-LAjk5S3gJhWQbv-83" vertex="1" connectable="0">
          <mxGeometry x="-0.28" y="1" relative="1" as="geometry">
            <mxPoint as="offset" />
          </mxGeometry>
        </mxCell>
        <mxCell id="HfoTt-LAjk5S3gJhWQbv-86" value="" style="html=1;verticalAlign=bottom;labelBackgroundColor=none;endArrow=block;endFill=1;rounded=0;entryX=0;entryY=0.5;entryDx=0;entryDy=0;" parent="1" target="HfoTt-LAjk5S3gJhWQbv-112" edge="1">
          <mxGeometry width="160" relative="1" as="geometry">
            <mxPoint x="1080" y="4986" as="sourcePoint" />
            <mxPoint x="1150" y="4986" as="targetPoint" />
          </mxGeometry>
        </mxCell>
        <mxCell id="HfoTt-LAjk5S3gJhWQbv-87" value="&lt;br&gt;" style="edgeLabel;html=1;align=center;verticalAlign=middle;resizable=0;points=[];" parent="HfoTt-LAjk5S3gJhWQbv-86" vertex="1" connectable="0">
          <mxGeometry x="-0.24" relative="1" as="geometry">
            <mxPoint as="offset" />
          </mxGeometry>
        </mxCell>
        <mxCell id="HfoTt-LAjk5S3gJhWQbv-88" value="non" style="edgeLabel;html=1;align=center;verticalAlign=middle;resizable=0;points=[];" parent="HfoTt-LAjk5S3gJhWQbv-86" vertex="1" connectable="0">
          <mxGeometry x="0.1" y="1" relative="1" as="geometry">
            <mxPoint as="offset" />
          </mxGeometry>
        </mxCell>
        <mxCell id="HfoTt-LAjk5S3gJhWQbv-92" value="" style="html=1;verticalAlign=bottom;labelBackgroundColor=none;endArrow=block;endFill=1;rounded=0;exitX=0.5;exitY=1;exitDx=0;exitDy=0;" parent="1" source="HfoTt-LAjk5S3gJhWQbv-76" target="HfoTt-LAjk5S3gJhWQbv-81" edge="1">
          <mxGeometry width="160" relative="1" as="geometry">
            <mxPoint x="1015" y="4770" as="sourcePoint" />
            <mxPoint x="1015" y="4790" as="targetPoint" />
          </mxGeometry>
        </mxCell>
        <mxCell id="HfoTt-LAjk5S3gJhWQbv-93" value="&lt;br&gt;" style="edgeLabel;html=1;align=center;verticalAlign=middle;resizable=0;points=[];" parent="HfoTt-LAjk5S3gJhWQbv-92" vertex="1" connectable="0">
          <mxGeometry x="-0.24" relative="1" as="geometry">
            <mxPoint as="offset" />
          </mxGeometry>
        </mxCell>
        <mxCell id="HfoTt-LAjk5S3gJhWQbv-94" value="" style="html=1;verticalAlign=bottom;labelBackgroundColor=none;endArrow=block;endFill=1;rounded=0;exitX=0.5;exitY=1;exitDx=0;exitDy=0;entryX=0.5;entryY=0;entryDx=0;entryDy=0;" parent="1" source="HfoTt-LAjk5S3gJhWQbv-81" target="HfoTt-LAjk5S3gJhWQbv-82" edge="1">
          <mxGeometry width="160" relative="1" as="geometry">
            <mxPoint x="1015" y="4806" as="sourcePoint" />
            <mxPoint x="1015" y="4846" as="targetPoint" />
          </mxGeometry>
        </mxCell>
        <mxCell id="HfoTt-LAjk5S3gJhWQbv-95" value="&lt;br&gt;" style="edgeLabel;html=1;align=center;verticalAlign=middle;resizable=0;points=[];" parent="HfoTt-LAjk5S3gJhWQbv-94" vertex="1" connectable="0">
          <mxGeometry x="-0.24" relative="1" as="geometry">
            <mxPoint as="offset" />
          </mxGeometry>
        </mxCell>
        <mxCell id="HfoTt-LAjk5S3gJhWQbv-108" value="Ajout Nouveau Commerce" style="html=1;align=center;verticalAlign=top;rounded=1;absoluteArcSize=1;arcSize=10;dashed=0;whiteSpace=wrap;" parent="1" vertex="1">
          <mxGeometry x="935" y="5106" width="140" height="40" as="geometry" />
        </mxCell>
        <mxCell id="HfoTt-LAjk5S3gJhWQbv-110" value="" style="html=1;verticalAlign=bottom;labelBackgroundColor=none;endArrow=block;endFill=1;rounded=0;entryX=1;entryY=0.5;entryDx=0;entryDy=0;exitX=0.5;exitY=1;exitDx=0;exitDy=0;" parent="1" source="HfoTt-LAjk5S3gJhWQbv-112" target="HfoTt-LAjk5S3gJhWQbv-108" edge="1">
          <mxGeometry width="160" relative="1" as="geometry">
            <mxPoint x="1210" y="5086" as="sourcePoint" />
            <mxPoint x="1015" y="4926" as="targetPoint" />
          </mxGeometry>
        </mxCell>
        <mxCell id="HfoTt-LAjk5S3gJhWQbv-111" value="&lt;br&gt;" style="edgeLabel;html=1;align=center;verticalAlign=middle;resizable=0;points=[];" parent="HfoTt-LAjk5S3gJhWQbv-110" vertex="1" connectable="0">
          <mxGeometry x="-0.24" relative="1" as="geometry">
            <mxPoint as="offset" />
          </mxGeometry>
        </mxCell>
        <mxCell id="HfoTt-LAjk5S3gJhWQbv-118" value="oui" style="edgeLabel;html=1;align=center;verticalAlign=middle;resizable=0;points=[];" parent="HfoTt-LAjk5S3gJhWQbv-110" vertex="1" connectable="0">
          <mxGeometry x="0.028" y="-1" relative="1" as="geometry">
            <mxPoint as="offset" />
          </mxGeometry>
        </mxCell>
        <mxCell id="HfoTt-LAjk5S3gJhWQbv-112" value="Proposer Inscription &#xa;comme Commerce ?" style="rhombus;" parent="1" vertex="1">
          <mxGeometry x="1145" y="4916" width="150" height="140" as="geometry" />
        </mxCell>
        <mxCell id="HfoTt-LAjk5S3gJhWQbv-113" value="" style="html=1;verticalAlign=bottom;labelBackgroundColor=none;endArrow=block;endFill=1;rounded=0;entryX=0;entryY=0.5;entryDx=0;entryDy=0;" parent="1" target="HfoTt-LAjk5S3gJhWQbv-116" edge="1">
          <mxGeometry width="160" relative="1" as="geometry">
            <mxPoint x="1295" y="4985.5" as="sourcePoint" />
            <mxPoint x="1360" y="4985.5" as="targetPoint" />
          </mxGeometry>
        </mxCell>
        <mxCell id="HfoTt-LAjk5S3gJhWQbv-114" value="&lt;br&gt;" style="edgeLabel;html=1;align=center;verticalAlign=middle;resizable=0;points=[];" parent="HfoTt-LAjk5S3gJhWQbv-113" vertex="1" connectable="0">
          <mxGeometry x="-0.24" relative="1" as="geometry">
            <mxPoint as="offset" />
          </mxGeometry>
        </mxCell>
        <mxCell id="HfoTt-LAjk5S3gJhWQbv-115" value="non" style="edgeLabel;html=1;align=center;verticalAlign=middle;resizable=0;points=[];" parent="HfoTt-LAjk5S3gJhWQbv-113" vertex="1" connectable="0">
          <mxGeometry x="0.1" y="1" relative="1" as="geometry">
            <mxPoint as="offset" />
          </mxGeometry>
        </mxCell>
        <mxCell id="HfoTt-LAjk5S3gJhWQbv-116" value="" style="ellipse;html=1;shape=endState;fillColor=strokeColor;" parent="1" vertex="1">
          <mxGeometry x="1360" y="4971" width="30" height="30" as="geometry" />
        </mxCell>
        <mxCell id="HfoTt-LAjk5S3gJhWQbv-119" value="Renseigner Infos de Base" style="html=1;align=center;verticalAlign=top;rounded=1;absoluteArcSize=1;arcSize=10;dashed=0;whiteSpace=wrap;" parent="1" vertex="1">
          <mxGeometry x="935" y="5186" width="140" height="40" as="geometry" />
        </mxCell>
        <mxCell id="HfoTt-LAjk5S3gJhWQbv-120" value="Configurer Détails Commerce " style="html=1;align=center;verticalAlign=top;rounded=1;absoluteArcSize=1;arcSize=10;dashed=0;whiteSpace=wrap;" parent="1" vertex="1">
          <mxGeometry x="935" y="5302" width="140" height="40" as="geometry" />
        </mxCell>
        <mxCell id="HfoTt-LAjk5S3gJhWQbv-121" value="Configurer Inventaire" style="html=1;align=center;verticalAlign=top;rounded=1;absoluteArcSize=1;arcSize=10;dashed=0;whiteSpace=wrap;" parent="1" vertex="1">
          <mxGeometry x="935" y="5408" width="140" height="40" as="geometry" />
        </mxCell>
        <mxCell id="HfoTt-LAjk5S3gJhWQbv-122" value="Personnaliser Apparence Page" style="html=1;align=center;verticalAlign=top;rounded=1;absoluteArcSize=1;arcSize=10;dashed=0;whiteSpace=wrap;" parent="1" vertex="1">
          <mxGeometry x="935" y="5512" width="140" height="40" as="geometry" />
        </mxCell>
        <mxCell id="HfoTt-LAjk5S3gJhWQbv-123" value="Prévisualisation et Validation Profil" style="html=1;align=center;verticalAlign=top;rounded=1;absoluteArcSize=1;arcSize=10;dashed=0;whiteSpace=wrap;" parent="1" vertex="1">
          <mxGeometry x="935" y="5582" width="140" height="40" as="geometry" />
        </mxCell>
        <mxCell id="HfoTt-LAjk5S3gJhWQbv-124" value="Publication du Profil Commerce" style="html=1;align=center;verticalAlign=top;rounded=1;absoluteArcSize=1;arcSize=10;dashed=0;whiteSpace=wrap;" parent="1" vertex="1">
          <mxGeometry x="935" y="5662" width="140" height="40" as="geometry" />
        </mxCell>
        <mxCell id="HfoTt-LAjk5S3gJhWQbv-125" value="Planification Notifications Professionnelles" style="html=1;align=center;verticalAlign=top;rounded=1;absoluteArcSize=1;arcSize=10;dashed=0;whiteSpace=wrap;" parent="1" vertex="1">
          <mxGeometry x="935" y="5742" width="140" height="40" as="geometry" />
        </mxCell>
        <mxCell id="HfoTt-LAjk5S3gJhWQbv-126" value="" style="html=1;verticalAlign=bottom;labelBackgroundColor=none;endArrow=block;endFill=1;rounded=0;entryX=0.5;entryY=0;entryDx=0;entryDy=0;exitX=0.5;exitY=1;exitDx=0;exitDy=0;" parent="1" source="HfoTt-LAjk5S3gJhWQbv-125" target="HfoTt-LAjk5S3gJhWQbv-128" edge="1">
          <mxGeometry width="160" relative="1" as="geometry">
            <mxPoint x="1010" y="5782" as="sourcePoint" />
            <mxPoint x="1005" y="5890.8099999999995" as="targetPoint" />
          </mxGeometry>
        </mxCell>
        <mxCell id="HfoTt-LAjk5S3gJhWQbv-127" value="&lt;br&gt;" style="edgeLabel;html=1;align=center;verticalAlign=middle;resizable=0;points=[];" parent="HfoTt-LAjk5S3gJhWQbv-126" vertex="1" connectable="0">
          <mxGeometry x="-0.24" relative="1" as="geometry">
            <mxPoint as="offset" />
          </mxGeometry>
        </mxCell>
        <mxCell id="HfoTt-LAjk5S3gJhWQbv-128" value="" style="ellipse;html=1;shape=endState;fillColor=strokeColor;" parent="1" vertex="1">
          <mxGeometry x="990" y="5806" width="30" height="30" as="geometry" />
        </mxCell>
        <mxCell id="HfoTt-LAjk5S3gJhWQbv-129" value="Par exemple:&lt;br&gt;- Nom&lt;br&gt;- Adresse&lt;br&gt;- Type d&#39;activité&lt;br&gt;" style="shape=note2;boundedLbl=1;whiteSpace=wrap;html=1;size=25;verticalAlign=top;align=left;" parent="1" vertex="1">
          <mxGeometry x="1180" y="5156" width="100" height="100" as="geometry" />
        </mxCell>
        <mxCell id="HfoTt-LAjk5S3gJhWQbv-130" value="" style="endArrow=none;startArrow=none;endFill=0;startFill=0;endSize=8;html=1;verticalAlign=bottom;dashed=1;labelBackgroundColor=none;dashPattern=10 10;rounded=0;exitX=0;exitY=0.5;exitDx=0;exitDy=0;exitPerimeter=0;entryX=1;entryY=0.5;entryDx=0;entryDy=0;" parent="1" source="HfoTt-LAjk5S3gJhWQbv-129" target="HfoTt-LAjk5S3gJhWQbv-119" edge="1">
          <mxGeometry width="160" relative="1" as="geometry">
            <mxPoint x="1500" y="5366" as="sourcePoint" />
            <mxPoint x="1075" y="5216" as="targetPoint" />
          </mxGeometry>
        </mxCell>
        <mxCell id="HfoTt-LAjk5S3gJhWQbv-131" value="Par exemple:&lt;br&gt;- ajout de produits ou services&lt;br&gt;- gestion des stocks" style="shape=note2;boundedLbl=1;whiteSpace=wrap;html=1;size=25;verticalAlign=top;align=left;" parent="1" vertex="1">
          <mxGeometry x="1180" y="5386" width="170" height="84" as="geometry" />
        </mxCell>
        <mxCell id="HfoTt-LAjk5S3gJhWQbv-132" value="" style="endArrow=none;startArrow=none;endFill=0;startFill=0;endSize=8;html=1;verticalAlign=bottom;dashed=1;labelBackgroundColor=none;dashPattern=10 10;rounded=0;exitX=0;exitY=0.5;exitDx=0;exitDy=0;exitPerimeter=0;entryX=1;entryY=0.5;entryDx=0;entryDy=0;" parent="1" source="HfoTt-LAjk5S3gJhWQbv-131" target="HfoTt-LAjk5S3gJhWQbv-121" edge="1">
          <mxGeometry width="160" relative="1" as="geometry">
            <mxPoint x="1516" y="5589" as="sourcePoint" />
            <mxPoint x="1040" y="5412" as="targetPoint" />
          </mxGeometry>
        </mxCell>
        <mxCell id="HfoTt-LAjk5S3gJhWQbv-133" value="Par exemple:&lt;br&gt;- description&lt;br&gt;- horaires&lt;br&gt;- contact" style="shape=note2;boundedLbl=1;whiteSpace=wrap;html=1;size=25;verticalAlign=top;align=left;" parent="1" vertex="1">
          <mxGeometry x="1180" y="5276" width="90" height="92" as="geometry" />
        </mxCell>
        <mxCell id="HfoTt-LAjk5S3gJhWQbv-134" value="" style="endArrow=none;startArrow=none;endFill=0;startFill=0;endSize=8;html=1;verticalAlign=bottom;dashed=1;labelBackgroundColor=none;dashPattern=10 10;rounded=0;exitX=0;exitY=0.5;exitDx=0;exitDy=0;exitPerimeter=0;entryX=1;entryY=0.5;entryDx=0;entryDy=0;" parent="1" source="HfoTt-LAjk5S3gJhWQbv-133" target="HfoTt-LAjk5S3gJhWQbv-120" edge="1">
          <mxGeometry width="160" relative="1" as="geometry">
            <mxPoint x="1516" y="5503" as="sourcePoint" />
            <mxPoint x="1040" y="5338" as="targetPoint" />
          </mxGeometry>
        </mxCell>
        <mxCell id="HfoTt-LAjk5S3gJhWQbv-135" value="Par exemple:&lt;br&gt;-&amp;nbsp;logo&lt;br&gt;- images&lt;br&gt;- thème" style="shape=note2;boundedLbl=1;whiteSpace=wrap;html=1;size=25;verticalAlign=top;align=left;" parent="1" vertex="1">
          <mxGeometry x="1180" y="5486" width="90" height="92" as="geometry" />
        </mxCell>
        <mxCell id="HfoTt-LAjk5S3gJhWQbv-136" value="" style="endArrow=none;startArrow=none;endFill=0;startFill=0;endSize=8;html=1;verticalAlign=bottom;dashed=1;labelBackgroundColor=none;dashPattern=10 10;rounded=0;exitX=0;exitY=0.5;exitDx=0;exitDy=0;exitPerimeter=0;entryX=1;entryY=0.5;entryDx=0;entryDy=0;" parent="1" source="HfoTt-LAjk5S3gJhWQbv-135" target="HfoTt-LAjk5S3gJhWQbv-122" edge="1">
          <mxGeometry width="160" relative="1" as="geometry">
            <mxPoint x="1562" y="5723" as="sourcePoint" />
            <mxPoint x="1121" y="5546" as="targetPoint" />
          </mxGeometry>
        </mxCell>
        <mxCell id="HfoTt-LAjk5S3gJhWQbv-137" value="" style="html=1;verticalAlign=bottom;labelBackgroundColor=none;endArrow=block;endFill=1;rounded=0;exitX=0.5;exitY=1;exitDx=0;exitDy=0;" parent="1" source="HfoTt-LAjk5S3gJhWQbv-108" target="HfoTt-LAjk5S3gJhWQbv-119" edge="1">
          <mxGeometry width="160" relative="1" as="geometry">
            <mxPoint x="1015" y="4886" as="sourcePoint" />
            <mxPoint x="1015" y="4926" as="targetPoint" />
          </mxGeometry>
        </mxCell>
        <mxCell id="HfoTt-LAjk5S3gJhWQbv-138" value="&lt;br&gt;" style="edgeLabel;html=1;align=center;verticalAlign=middle;resizable=0;points=[];" parent="HfoTt-LAjk5S3gJhWQbv-137" vertex="1" connectable="0">
          <mxGeometry x="-0.24" relative="1" as="geometry">
            <mxPoint as="offset" />
          </mxGeometry>
        </mxCell>
        <mxCell id="HfoTt-LAjk5S3gJhWQbv-139" value="" style="html=1;verticalAlign=bottom;labelBackgroundColor=none;endArrow=block;endFill=1;rounded=0;exitX=0.5;exitY=1;exitDx=0;exitDy=0;entryX=0.5;entryY=0;entryDx=0;entryDy=0;" parent="1" source="HfoTt-LAjk5S3gJhWQbv-119" target="HfoTt-LAjk5S3gJhWQbv-120" edge="1">
          <mxGeometry width="160" relative="1" as="geometry">
            <mxPoint x="1015" y="5156" as="sourcePoint" />
            <mxPoint x="1015" y="5196" as="targetPoint" />
          </mxGeometry>
        </mxCell>
        <mxCell id="HfoTt-LAjk5S3gJhWQbv-140" value="&lt;br&gt;" style="edgeLabel;html=1;align=center;verticalAlign=middle;resizable=0;points=[];" parent="HfoTt-LAjk5S3gJhWQbv-139" vertex="1" connectable="0">
          <mxGeometry x="-0.24" relative="1" as="geometry">
            <mxPoint as="offset" />
          </mxGeometry>
        </mxCell>
        <mxCell id="HfoTt-LAjk5S3gJhWQbv-141" value="" style="html=1;verticalAlign=bottom;labelBackgroundColor=none;endArrow=block;endFill=1;rounded=0;exitX=0.5;exitY=1;exitDx=0;exitDy=0;" parent="1" source="HfoTt-LAjk5S3gJhWQbv-120" target="HfoTt-LAjk5S3gJhWQbv-121" edge="1">
          <mxGeometry width="160" relative="1" as="geometry">
            <mxPoint x="1015" y="5236" as="sourcePoint" />
            <mxPoint x="1015" y="5312" as="targetPoint" />
          </mxGeometry>
        </mxCell>
        <mxCell id="HfoTt-LAjk5S3gJhWQbv-142" value="&lt;br&gt;" style="edgeLabel;html=1;align=center;verticalAlign=middle;resizable=0;points=[];" parent="HfoTt-LAjk5S3gJhWQbv-141" vertex="1" connectable="0">
          <mxGeometry x="-0.24" relative="1" as="geometry">
            <mxPoint as="offset" />
          </mxGeometry>
        </mxCell>
        <mxCell id="HfoTt-LAjk5S3gJhWQbv-143" value="" style="html=1;verticalAlign=bottom;labelBackgroundColor=none;endArrow=block;endFill=1;rounded=0;exitX=0.5;exitY=1;exitDx=0;exitDy=0;entryX=0.5;entryY=0;entryDx=0;entryDy=0;" parent="1" source="HfoTt-LAjk5S3gJhWQbv-121" target="HfoTt-LAjk5S3gJhWQbv-122" edge="1">
          <mxGeometry width="160" relative="1" as="geometry">
            <mxPoint x="1015" y="5352" as="sourcePoint" />
            <mxPoint x="1015" y="5418" as="targetPoint" />
          </mxGeometry>
        </mxCell>
        <mxCell id="HfoTt-LAjk5S3gJhWQbv-144" value="&lt;br&gt;" style="edgeLabel;html=1;align=center;verticalAlign=middle;resizable=0;points=[];" parent="HfoTt-LAjk5S3gJhWQbv-143" vertex="1" connectable="0">
          <mxGeometry x="-0.24" relative="1" as="geometry">
            <mxPoint as="offset" />
          </mxGeometry>
        </mxCell>
        <mxCell id="HfoTt-LAjk5S3gJhWQbv-145" value="" style="html=1;verticalAlign=bottom;labelBackgroundColor=none;endArrow=block;endFill=1;rounded=0;exitX=0.5;exitY=1;exitDx=0;exitDy=0;entryX=0.5;entryY=0;entryDx=0;entryDy=0;" parent="1" source="HfoTt-LAjk5S3gJhWQbv-122" target="HfoTt-LAjk5S3gJhWQbv-123" edge="1">
          <mxGeometry width="160" relative="1" as="geometry">
            <mxPoint x="1015" y="5458" as="sourcePoint" />
            <mxPoint x="1015" y="5522" as="targetPoint" />
          </mxGeometry>
        </mxCell>
        <mxCell id="HfoTt-LAjk5S3gJhWQbv-146" value="&lt;br&gt;" style="edgeLabel;html=1;align=center;verticalAlign=middle;resizable=0;points=[];" parent="HfoTt-LAjk5S3gJhWQbv-145" vertex="1" connectable="0">
          <mxGeometry x="-0.24" relative="1" as="geometry">
            <mxPoint as="offset" />
          </mxGeometry>
        </mxCell>
        <mxCell id="HfoTt-LAjk5S3gJhWQbv-147" value="" style="html=1;verticalAlign=bottom;labelBackgroundColor=none;endArrow=block;endFill=1;rounded=0;exitX=0.5;exitY=1;exitDx=0;exitDy=0;entryX=0.5;entryY=0;entryDx=0;entryDy=0;" parent="1" source="HfoTt-LAjk5S3gJhWQbv-123" target="HfoTt-LAjk5S3gJhWQbv-124" edge="1">
          <mxGeometry width="160" relative="1" as="geometry">
            <mxPoint x="1015" y="5538" as="sourcePoint" />
            <mxPoint x="1015" y="5592" as="targetPoint" />
          </mxGeometry>
        </mxCell>
        <mxCell id="HfoTt-LAjk5S3gJhWQbv-148" value="&lt;br&gt;" style="edgeLabel;html=1;align=center;verticalAlign=middle;resizable=0;points=[];" parent="HfoTt-LAjk5S3gJhWQbv-147" vertex="1" connectable="0">
          <mxGeometry x="-0.24" relative="1" as="geometry">
            <mxPoint as="offset" />
          </mxGeometry>
        </mxCell>
        <mxCell id="HfoTt-LAjk5S3gJhWQbv-149" value="" style="html=1;verticalAlign=bottom;labelBackgroundColor=none;endArrow=block;endFill=1;rounded=0;exitX=0.5;exitY=1;exitDx=0;exitDy=0;entryX=0.5;entryY=0;entryDx=0;entryDy=0;" parent="1" source="HfoTt-LAjk5S3gJhWQbv-124" target="HfoTt-LAjk5S3gJhWQbv-125" edge="1">
          <mxGeometry width="160" relative="1" as="geometry">
            <mxPoint x="1015" y="5632" as="sourcePoint" />
            <mxPoint x="1015" y="5672" as="targetPoint" />
          </mxGeometry>
        </mxCell>
        <mxCell id="HfoTt-LAjk5S3gJhWQbv-150" value="&lt;br&gt;" style="edgeLabel;html=1;align=center;verticalAlign=middle;resizable=0;points=[];" parent="HfoTt-LAjk5S3gJhWQbv-149" vertex="1" connectable="0">
          <mxGeometry x="-0.24" relative="1" as="geometry">
            <mxPoint as="offset" />
          </mxGeometry>
        </mxCell>
        <mxCell id="Ode9T3N5UCD1PrTYBEfB-1" value="" style="html=1;verticalAlign=bottom;labelBackgroundColor=none;endArrow=block;endFill=1;rounded=0;exitX=0.5;exitY=1;exitDx=0;exitDy=0;entryX=1;entryY=0.5;entryDx=0;entryDy=0;" edge="1" parent="1" source="HfoTt-LAjk5S3gJhWQbv-62" target="HfoTt-LAjk5S3gJhWQbv-63">
          <mxGeometry width="160" relative="1" as="geometry">
            <mxPoint x="1145" y="3950" as="sourcePoint" />
            <mxPoint x="1145" y="3990" as="targetPoint" />
          </mxGeometry>
        </mxCell>
        <mxCell id="Ode9T3N5UCD1PrTYBEfB-2" value="&lt;br&gt;" style="edgeLabel;html=1;align=center;verticalAlign=middle;resizable=0;points=[];" vertex="1" connectable="0" parent="Ode9T3N5UCD1PrTYBEfB-1">
          <mxGeometry x="-0.24" relative="1" as="geometry">
            <mxPoint as="offset" />
          </mxGeometry>
        </mxCell>
      </root>
    </mxGraphModel>
  </diagram>
  <diagram id="W6RMSphbb4R-sZK6XQPz" name="CLASSES">
    <mxGraphModel dx="1674" dy="836" grid="1" gridSize="10" guides="1" tooltips="1" connect="1" arrows="1" fold="1" page="1" pageScale="1" pageWidth="1400" pageHeight="850" math="0" shadow="0">
      <root>
        <mxCell id="0" />
        <mxCell id="1" parent="0" />
        <mxCell id="NZT87ZV2PnWzYhANc2ur-1" value="Conception de logicel&lt;br&gt;Laboratoire 3&lt;br&gt;&lt;br&gt;Diagrammes de classes&lt;br&gt;&lt;br&gt;Version 0&lt;br&gt;Novembre 2023&lt;br&gt;&lt;br&gt;Mathieu Hatin (2296939) / Simon Turcotte (2395412) / Jean-Nicolas Tessier" style="rounded=0;whiteSpace=wrap;html=1;fillColor=#a20025;fontColor=#ffffff;strokeColor=#6F0000;" parent="1" vertex="1">
          <mxGeometry width="320" height="160" as="geometry" />
        </mxCell>
        <mxCell id="NZT87ZV2PnWzYhANc2ur-2" value="Utilisateur" style="swimlane;fontStyle=1;align=center;verticalAlign=top;childLayout=stackLayout;horizontal=1;startSize=26;horizontalStack=0;resizeParent=1;resizeParentMax=0;resizeLast=0;collapsible=1;marginBottom=0;" parent="1" vertex="1">
          <mxGeometry x="370" y="120" width="370" height="372" as="geometry">
            <mxRectangle x="530" y="140" width="100" height="30" as="alternateBounds" />
          </mxGeometry>
        </mxCell>
        <mxCell id="NZT87ZV2PnWzYhANc2ur-3" value="- id: int" style="text;strokeColor=none;fillColor=none;align=left;verticalAlign=top;spacingLeft=4;spacingRight=4;overflow=hidden;rotatable=0;points=[[0,0.5],[1,0.5]];portConstraint=eastwest;" parent="NZT87ZV2PnWzYhANc2ur-2" vertex="1">
          <mxGeometry y="26" width="370" height="26" as="geometry" />
        </mxCell>
        <mxCell id="NZT87ZV2PnWzYhANc2ur-6" value="- nom: String" style="text;strokeColor=none;fillColor=none;align=left;verticalAlign=top;spacingLeft=4;spacingRight=4;overflow=hidden;rotatable=0;points=[[0,0.5],[1,0.5]];portConstraint=eastwest;" parent="NZT87ZV2PnWzYhANc2ur-2" vertex="1">
          <mxGeometry y="52" width="370" height="26" as="geometry" />
        </mxCell>
        <mxCell id="NZT87ZV2PnWzYhANc2ur-7" value="- prenom: String" style="text;strokeColor=none;fillColor=none;align=left;verticalAlign=top;spacingLeft=4;spacingRight=4;overflow=hidden;rotatable=0;points=[[0,0.5],[1,0.5]];portConstraint=eastwest;" parent="NZT87ZV2PnWzYhANc2ur-2" vertex="1">
          <mxGeometry y="78" width="370" height="26" as="geometry" />
        </mxCell>
        <mxCell id="NZT87ZV2PnWzYhANc2ur-8" value="- dateDeNaissance: Date" style="text;strokeColor=none;fillColor=none;align=left;verticalAlign=top;spacingLeft=4;spacingRight=4;overflow=hidden;rotatable=0;points=[[0,0.5],[1,0.5]];portConstraint=eastwest;" parent="NZT87ZV2PnWzYhANc2ur-2" vertex="1">
          <mxGeometry y="104" width="370" height="26" as="geometry" />
        </mxCell>
        <mxCell id="NZT87ZV2PnWzYhANc2ur-10" value="- adresse: String" style="text;strokeColor=none;fillColor=none;align=left;verticalAlign=top;spacingLeft=4;spacingRight=4;overflow=hidden;rotatable=0;points=[[0,0.5],[1,0.5]];portConstraint=eastwest;" parent="NZT87ZV2PnWzYhANc2ur-2" vertex="1">
          <mxGeometry y="130" width="370" height="26" as="geometry" />
        </mxCell>
        <mxCell id="NZT87ZV2PnWzYhANc2ur-9" value="- courriel: String" style="text;strokeColor=none;fillColor=none;align=left;verticalAlign=top;spacingLeft=4;spacingRight=4;overflow=hidden;rotatable=0;points=[[0,0.5],[1,0.5]];portConstraint=eastwest;" parent="NZT87ZV2PnWzYhANc2ur-2" vertex="1">
          <mxGeometry y="156" width="370" height="26" as="geometry" />
        </mxCell>
        <mxCell id="fUJwCpsrxEZ8bBtRbH8o-1" value="- preferences: Preferences" style="text;strokeColor=none;fillColor=none;align=left;verticalAlign=top;spacingLeft=4;spacingRight=4;overflow=hidden;rotatable=0;points=[[0,0.5],[1,0.5]];portConstraint=eastwest;" parent="NZT87ZV2PnWzYhANc2ur-2" vertex="1">
          <mxGeometry y="182" width="370" height="26" as="geometry" />
        </mxCell>
        <mxCell id="NZT87ZV2PnWzYhANc2ur-11" value="- localisation: Localisation" style="text;strokeColor=none;fillColor=none;align=left;verticalAlign=top;spacingLeft=4;spacingRight=4;overflow=hidden;rotatable=0;points=[[0,0.5],[1,0.5]];portConstraint=eastwest;" parent="NZT87ZV2PnWzYhANc2ur-2" vertex="1">
          <mxGeometry y="208" width="370" height="26" as="geometry" />
        </mxCell>
        <mxCell id="NZT87ZV2PnWzYhANc2ur-4" value="" style="line;strokeWidth=1;fillColor=none;align=left;verticalAlign=middle;spacingTop=-1;spacingLeft=3;spacingRight=3;rotatable=0;labelPosition=right;points=[];portConstraint=eastwest;strokeColor=inherit;" parent="NZT87ZV2PnWzYhANc2ur-2" vertex="1">
          <mxGeometry y="234" width="370" height="8" as="geometry" />
        </mxCell>
        <mxCell id="NZT87ZV2PnWzYhANc2ur-5" value="+ getter/setter " style="text;strokeColor=none;fillColor=none;align=left;verticalAlign=top;spacingLeft=4;spacingRight=4;overflow=hidden;rotatable=0;points=[[0,0.5],[1,0.5]];portConstraint=eastwest;" parent="NZT87ZV2PnWzYhANc2ur-2" vertex="1">
          <mxGeometry y="242" width="370" height="26" as="geometry" />
        </mxCell>
        <mxCell id="NZT87ZV2PnWzYhANc2ur-12" value="+ recevoirNotification(notification : Notification) : void" style="text;strokeColor=none;fillColor=none;align=left;verticalAlign=top;spacingLeft=4;spacingRight=4;overflow=hidden;rotatable=0;points=[[0,0.5],[1,0.5]];portConstraint=eastwest;" parent="NZT87ZV2PnWzYhANc2ur-2" vertex="1">
          <mxGeometry y="268" width="370" height="26" as="geometry" />
        </mxCell>
        <mxCell id="NZT87ZV2PnWzYhANc2ur-13" value="+ modifierPreferences(preferences : Preferences) : void" style="text;strokeColor=none;fillColor=none;align=left;verticalAlign=top;spacingLeft=4;spacingRight=4;overflow=hidden;rotatable=0;points=[[0,0.5],[1,0.5]];portConstraint=eastwest;" parent="NZT87ZV2PnWzYhANc2ur-2" vertex="1">
          <mxGeometry y="294" width="370" height="26" as="geometry" />
        </mxCell>
        <mxCell id="NZT87ZV2PnWzYhANc2ur-14" value="+ suivreCommerce(commerce : Commerce) : void" style="text;strokeColor=none;fillColor=none;align=left;verticalAlign=top;spacingLeft=4;spacingRight=4;overflow=hidden;rotatable=0;points=[[0,0.5],[1,0.5]];portConstraint=eastwest;" parent="NZT87ZV2PnWzYhANc2ur-2" vertex="1">
          <mxGeometry y="320" width="370" height="26" as="geometry" />
        </mxCell>
        <mxCell id="NZT87ZV2PnWzYhANc2ur-15" value="+ consulterCommerces() : List&lt;Commerce&gt;&#xa;" style="text;strokeColor=none;fillColor=none;align=left;verticalAlign=top;spacingLeft=4;spacingRight=4;overflow=hidden;rotatable=0;points=[[0,0.5],[1,0.5]];portConstraint=eastwest;" parent="NZT87ZV2PnWzYhANc2ur-2" vertex="1">
          <mxGeometry y="346" width="370" height="26" as="geometry" />
        </mxCell>
        <mxCell id="NZT87ZV2PnWzYhANc2ur-20" value="Notification" style="swimlane;fontStyle=1;align=center;verticalAlign=top;childLayout=stackLayout;horizontal=1;startSize=26;horizontalStack=0;resizeParent=1;resizeParentMax=0;resizeLast=0;collapsible=1;marginBottom=0;" parent="1" vertex="1">
          <mxGeometry x="920" y="492" width="360" height="268" as="geometry">
            <mxRectangle x="440" y="160" width="110" height="30" as="alternateBounds" />
          </mxGeometry>
        </mxCell>
        <mxCell id="NZT87ZV2PnWzYhANc2ur-21" value="- id : int" style="text;strokeColor=none;fillColor=none;align=left;verticalAlign=top;spacingLeft=4;spacingRight=4;overflow=hidden;rotatable=0;points=[[0,0.5],[1,0.5]];portConstraint=eastwest;" parent="NZT87ZV2PnWzYhANc2ur-20" vertex="1">
          <mxGeometry y="26" width="360" height="26" as="geometry" />
        </mxCell>
        <mxCell id="NZT87ZV2PnWzYhANc2ur-25" value="- titre : String" style="text;strokeColor=none;fillColor=none;align=left;verticalAlign=top;spacingLeft=4;spacingRight=4;overflow=hidden;rotatable=0;points=[[0,0.5],[1,0.5]];portConstraint=eastwest;" parent="NZT87ZV2PnWzYhANc2ur-20" vertex="1">
          <mxGeometry y="52" width="360" height="26" as="geometry" />
        </mxCell>
        <mxCell id="NZT87ZV2PnWzYhANc2ur-26" value="- message : String" style="text;strokeColor=none;fillColor=none;align=left;verticalAlign=top;spacingLeft=4;spacingRight=4;overflow=hidden;rotatable=0;points=[[0,0.5],[1,0.5]];portConstraint=eastwest;" parent="NZT87ZV2PnWzYhANc2ur-20" vertex="1">
          <mxGeometry y="78" width="360" height="26" as="geometry" />
        </mxCell>
        <mxCell id="NZT87ZV2PnWzYhANc2ur-27" value="- type : String" style="text;strokeColor=none;fillColor=none;align=left;verticalAlign=top;spacingLeft=4;spacingRight=4;overflow=hidden;rotatable=0;points=[[0,0.5],[1,0.5]];portConstraint=eastwest;" parent="NZT87ZV2PnWzYhANc2ur-20" vertex="1">
          <mxGeometry y="104" width="360" height="26" as="geometry" />
        </mxCell>
        <mxCell id="NZT87ZV2PnWzYhANc2ur-28" value="- dateEnvoi : DateTime" style="text;strokeColor=none;fillColor=none;align=left;verticalAlign=top;spacingLeft=4;spacingRight=4;overflow=hidden;rotatable=0;points=[[0,0.5],[1,0.5]];portConstraint=eastwest;" parent="NZT87ZV2PnWzYhANc2ur-20" vertex="1">
          <mxGeometry y="130" width="360" height="26" as="geometry" />
        </mxCell>
        <mxCell id="NZT87ZV2PnWzYhANc2ur-29" value="- statutLecture : boolean" style="text;strokeColor=none;fillColor=none;align=left;verticalAlign=top;spacingLeft=4;spacingRight=4;overflow=hidden;rotatable=0;points=[[0,0.5],[1,0.5]];portConstraint=eastwest;" parent="NZT87ZV2PnWzYhANc2ur-20" vertex="1">
          <mxGeometry y="156" width="360" height="26" as="geometry" />
        </mxCell>
        <mxCell id="NZT87ZV2PnWzYhANc2ur-22" value="" style="line;strokeWidth=1;fillColor=none;align=left;verticalAlign=middle;spacingTop=-1;spacingLeft=3;spacingRight=3;rotatable=0;labelPosition=right;points=[];portConstraint=eastwest;strokeColor=inherit;" parent="NZT87ZV2PnWzYhANc2ur-20" vertex="1">
          <mxGeometry y="182" width="360" height="8" as="geometry" />
        </mxCell>
        <mxCell id="NZT87ZV2PnWzYhANc2ur-31" value="+ getter/setters" style="text;strokeColor=none;fillColor=none;align=left;verticalAlign=top;spacingLeft=4;spacingRight=4;overflow=hidden;rotatable=0;points=[[0,0.5],[1,0.5]];portConstraint=eastwest;" parent="NZT87ZV2PnWzYhANc2ur-20" vertex="1">
          <mxGeometry y="190" width="360" height="26" as="geometry" />
        </mxCell>
        <mxCell id="NZT87ZV2PnWzYhANc2ur-30" value="+ envoyerUtilisateur(utilisateur : Utilisateur) : void" style="text;strokeColor=none;fillColor=none;align=left;verticalAlign=top;spacingLeft=4;spacingRight=4;overflow=hidden;rotatable=0;points=[[0,0.5],[1,0.5]];portConstraint=eastwest;" parent="NZT87ZV2PnWzYhANc2ur-20" vertex="1">
          <mxGeometry y="216" width="360" height="26" as="geometry" />
        </mxCell>
        <mxCell id="NZT87ZV2PnWzYhANc2ur-23" value="+ envoyerTous() : void" style="text;strokeColor=none;fillColor=none;align=left;verticalAlign=top;spacingLeft=4;spacingRight=4;overflow=hidden;rotatable=0;points=[[0,0.5],[1,0.5]];portConstraint=eastwest;" parent="NZT87ZV2PnWzYhANc2ur-20" vertex="1">
          <mxGeometry y="242" width="360" height="26" as="geometry" />
        </mxCell>
        <mxCell id="NZT87ZV2PnWzYhANc2ur-32" value="GestionnaireDeCommerce" style="swimlane;fontStyle=1;align=center;verticalAlign=top;childLayout=stackLayout;horizontal=1;startSize=26;horizontalStack=0;resizeParent=1;resizeParentMax=0;resizeLast=0;collapsible=1;marginBottom=0;" parent="1" vertex="1">
          <mxGeometry x="360" y="542" width="400" height="268" as="geometry" />
        </mxCell>
        <mxCell id="NZT87ZV2PnWzYhANc2ur-33" value="- idCommerce : int" style="text;strokeColor=none;fillColor=none;align=left;verticalAlign=top;spacingLeft=4;spacingRight=4;overflow=hidden;rotatable=0;points=[[0,0.5],[1,0.5]];portConstraint=eastwest;" parent="NZT87ZV2PnWzYhANc2ur-32" vertex="1">
          <mxGeometry y="26" width="400" height="26" as="geometry" />
        </mxCell>
        <mxCell id="NZT87ZV2PnWzYhANc2ur-37" value="- nomCommerce : String" style="text;strokeColor=none;fillColor=none;align=left;verticalAlign=top;spacingLeft=4;spacingRight=4;overflow=hidden;rotatable=0;points=[[0,0.5],[1,0.5]];portConstraint=eastwest;" parent="NZT87ZV2PnWzYhANc2ur-32" vertex="1">
          <mxGeometry y="52" width="400" height="26" as="geometry" />
        </mxCell>
        <mxCell id="fUJwCpsrxEZ8bBtRbH8o-32" value="- nomCommerce : String" style="text;strokeColor=none;fillColor=none;align=left;verticalAlign=top;spacingLeft=4;spacingRight=4;overflow=hidden;rotatable=0;points=[[0,0.5],[1,0.5]];portConstraint=eastwest;" parent="NZT87ZV2PnWzYhANc2ur-32" vertex="1">
          <mxGeometry y="78" width="400" height="26" as="geometry" />
        </mxCell>
        <mxCell id="NZT87ZV2PnWzYhANc2ur-38" value="- descriptionCommerce : String" style="text;strokeColor=none;fillColor=none;align=left;verticalAlign=top;spacingLeft=4;spacingRight=4;overflow=hidden;rotatable=0;points=[[0,0.5],[1,0.5]];portConstraint=eastwest;" parent="NZT87ZV2PnWzYhANc2ur-32" vertex="1">
          <mxGeometry y="104" width="400" height="26" as="geometry" />
        </mxCell>
        <mxCell id="NZT87ZV2PnWzYhANc2ur-36" value="- adresseCommerce : String" style="text;strokeColor=none;fillColor=none;align=left;verticalAlign=top;spacingLeft=4;spacingRight=4;overflow=hidden;rotatable=0;points=[[0,0.5],[1,0.5]];portConstraint=eastwest;" parent="NZT87ZV2PnWzYhANc2ur-32" vertex="1">
          <mxGeometry y="130" width="400" height="26" as="geometry" />
        </mxCell>
        <mxCell id="NZT87ZV2PnWzYhANc2ur-34" value="" style="line;strokeWidth=1;fillColor=none;align=left;verticalAlign=middle;spacingTop=-1;spacingLeft=3;spacingRight=3;rotatable=0;labelPosition=right;points=[];portConstraint=eastwest;strokeColor=inherit;" parent="NZT87ZV2PnWzYhANc2ur-32" vertex="1">
          <mxGeometry y="156" width="400" height="8" as="geometry" />
        </mxCell>
        <mxCell id="NZT87ZV2PnWzYhANc2ur-35" value="+ getter/setters" style="text;strokeColor=none;fillColor=none;align=left;verticalAlign=top;spacingLeft=4;spacingRight=4;overflow=hidden;rotatable=0;points=[[0,0.5],[1,0.5]];portConstraint=eastwest;" parent="NZT87ZV2PnWzYhANc2ur-32" vertex="1">
          <mxGeometry y="164" width="400" height="26" as="geometry" />
        </mxCell>
        <mxCell id="NZT87ZV2PnWzYhANc2ur-40" value="+ creerNotification(notification : Notification) : void" style="text;strokeColor=none;fillColor=none;align=left;verticalAlign=top;spacingLeft=4;spacingRight=4;overflow=hidden;rotatable=0;points=[[0,0.5],[1,0.5]];portConstraint=eastwest;" parent="NZT87ZV2PnWzYhANc2ur-32" vertex="1">
          <mxGeometry y="190" width="400" height="26" as="geometry" />
        </mxCell>
        <mxCell id="NZT87ZV2PnWzYhANc2ur-41" value="+ modifierCommerce(informations : InformationsCommerce) : void" style="text;strokeColor=none;fillColor=none;align=left;verticalAlign=top;spacingLeft=4;spacingRight=4;overflow=hidden;rotatable=0;points=[[0,0.5],[1,0.5]];portConstraint=eastwest;" parent="NZT87ZV2PnWzYhANc2ur-32" vertex="1">
          <mxGeometry y="216" width="400" height="26" as="geometry" />
        </mxCell>
        <mxCell id="NZT87ZV2PnWzYhANc2ur-39" value="+ analyserStatistiques() : Statistiques" style="text;strokeColor=none;fillColor=none;align=left;verticalAlign=top;spacingLeft=4;spacingRight=4;overflow=hidden;rotatable=0;points=[[0,0.5],[1,0.5]];portConstraint=eastwest;" parent="NZT87ZV2PnWzYhANc2ur-32" vertex="1">
          <mxGeometry y="242" width="400" height="26" as="geometry" />
        </mxCell>
        <mxCell id="NZT87ZV2PnWzYhANc2ur-43" value="Preferences" style="swimlane;fontStyle=1;align=center;verticalAlign=top;childLayout=stackLayout;horizontal=1;startSize=26;horizontalStack=0;resizeParent=1;resizeParentMax=0;resizeLast=0;collapsible=1;marginBottom=0;" parent="1" vertex="1">
          <mxGeometry x="950" y="122" width="320" height="346" as="geometry" />
        </mxCell>
        <mxCell id="NZT87ZV2PnWzYhANc2ur-44" value="- id: int " style="text;strokeColor=none;fillColor=none;align=left;verticalAlign=top;spacingLeft=4;spacingRight=4;overflow=hidden;rotatable=0;points=[[0,0.5],[1,0.5]];portConstraint=eastwest;" parent="NZT87ZV2PnWzYhANc2ur-43" vertex="1">
          <mxGeometry y="26" width="320" height="26" as="geometry" />
        </mxCell>
        <mxCell id="NZT87ZV2PnWzYhANc2ur-47" value="- alerte: boolean" style="text;strokeColor=none;fillColor=none;align=left;verticalAlign=top;spacingLeft=4;spacingRight=4;overflow=hidden;rotatable=0;points=[[0,0.5],[1,0.5]];portConstraint=eastwest;" parent="NZT87ZV2PnWzYhANc2ur-43" vertex="1">
          <mxGeometry y="52" width="320" height="26" as="geometry" />
        </mxCell>
        <mxCell id="NZT87ZV2PnWzYhANc2ur-48" value="- notificationPromo: boolean" style="text;strokeColor=none;fillColor=none;align=left;verticalAlign=top;spacingLeft=4;spacingRight=4;overflow=hidden;rotatable=0;points=[[0,0.5],[1,0.5]];portConstraint=eastwest;" parent="NZT87ZV2PnWzYhANc2ur-43" vertex="1">
          <mxGeometry y="78" width="320" height="26" as="geometry" />
        </mxCell>
        <mxCell id="NZT87ZV2PnWzYhANc2ur-49" value="- rayon: int" style="text;strokeColor=none;fillColor=none;align=left;verticalAlign=top;spacingLeft=4;spacingRight=4;overflow=hidden;rotatable=0;points=[[0,0.5],[1,0.5]];portConstraint=eastwest;" parent="NZT87ZV2PnWzYhANc2ur-43" vertex="1">
          <mxGeometry y="104" width="320" height="26" as="geometry" />
        </mxCell>
        <mxCell id="NZT87ZV2PnWzYhANc2ur-50" value="- theme: Theme" style="text;strokeColor=none;fillColor=none;align=left;verticalAlign=top;spacingLeft=4;spacingRight=4;overflow=hidden;rotatable=0;points=[[0,0.5],[1,0.5]];portConstraint=eastwest;" parent="NZT87ZV2PnWzYhANc2ur-43" vertex="1">
          <mxGeometry y="130" width="320" height="26" as="geometry" />
        </mxCell>
        <mxCell id="NZT87ZV2PnWzYhANc2ur-51" value="- langueId: int" style="text;strokeColor=none;fillColor=none;align=left;verticalAlign=top;spacingLeft=4;spacingRight=4;overflow=hidden;rotatable=0;points=[[0,0.5],[1,0.5]];portConstraint=eastwest;" parent="NZT87ZV2PnWzYhANc2ur-43" vertex="1">
          <mxGeometry y="156" width="320" height="26" as="geometry" />
        </mxCell>
        <mxCell id="NZT87ZV2PnWzYhANc2ur-45" value="" style="line;strokeWidth=1;fillColor=none;align=left;verticalAlign=middle;spacingTop=-1;spacingLeft=3;spacingRight=3;rotatable=0;labelPosition=right;points=[];portConstraint=eastwest;strokeColor=inherit;" parent="NZT87ZV2PnWzYhANc2ur-43" vertex="1">
          <mxGeometry y="182" width="320" height="8" as="geometry" />
        </mxCell>
        <mxCell id="NZT87ZV2PnWzYhANc2ur-46" value="+ getter" style="text;strokeColor=none;fillColor=none;align=left;verticalAlign=top;spacingLeft=4;spacingRight=4;overflow=hidden;rotatable=0;points=[[0,0.5],[1,0.5]];portConstraint=eastwest;" parent="NZT87ZV2PnWzYhANc2ur-43" vertex="1">
          <mxGeometry y="190" width="320" height="26" as="geometry" />
        </mxCell>
        <mxCell id="NZT87ZV2PnWzYhANc2ur-53" value="+ setAlert(boolean) : void " style="text;strokeColor=none;fillColor=none;align=left;verticalAlign=top;spacingLeft=4;spacingRight=4;overflow=hidden;rotatable=0;points=[[0,0.5],[1,0.5]];portConstraint=eastwest;" parent="NZT87ZV2PnWzYhANc2ur-43" vertex="1">
          <mxGeometry y="216" width="320" height="26" as="geometry" />
        </mxCell>
        <mxCell id="GM2VNKYtoIpM8O7H08QS-1" value="+ setRayon(km: int) : void " style="text;strokeColor=none;fillColor=none;align=left;verticalAlign=top;spacingLeft=4;spacingRight=4;overflow=hidden;rotatable=0;points=[[0,0.5],[1,0.5]];portConstraint=eastwest;" parent="NZT87ZV2PnWzYhANc2ur-43" vertex="1">
          <mxGeometry y="242" width="320" height="26" as="geometry" />
        </mxCell>
        <mxCell id="NZT87ZV2PnWzYhANc2ur-54" value="+ setNoficationPromo(boolean): void" style="text;strokeColor=none;fillColor=none;align=left;verticalAlign=top;spacingLeft=4;spacingRight=4;overflow=hidden;rotatable=0;points=[[0,0.5],[1,0.5]];portConstraint=eastwest;" parent="NZT87ZV2PnWzYhANc2ur-43" vertex="1">
          <mxGeometry y="268" width="320" height="26" as="geometry" />
        </mxCell>
        <mxCell id="NZT87ZV2PnWzYhANc2ur-56" value="+ setTheme(theme: Theme): void" style="text;strokeColor=none;fillColor=none;align=left;verticalAlign=top;spacingLeft=4;spacingRight=4;overflow=hidden;rotatable=0;points=[[0,0.5],[1,0.5]];portConstraint=eastwest;" parent="NZT87ZV2PnWzYhANc2ur-43" vertex="1">
          <mxGeometry y="294" width="320" height="26" as="geometry" />
        </mxCell>
        <mxCell id="NZT87ZV2PnWzYhANc2ur-57" value="+ setLangage(langueId : int): void" style="text;strokeColor=none;fillColor=none;align=left;verticalAlign=top;spacingLeft=4;spacingRight=4;overflow=hidden;rotatable=0;points=[[0,0.5],[1,0.5]];portConstraint=eastwest;" parent="NZT87ZV2PnWzYhANc2ur-43" vertex="1">
          <mxGeometry y="320" width="320" height="26" as="geometry" />
        </mxCell>
        <mxCell id="fUJwCpsrxEZ8bBtRbH8o-8" value="" style="endArrow=none;startArrow=diamondThin;endFill=0;startFill=1;html=1;verticalAlign=bottom;labelBackgroundColor=none;strokeWidth=1;startSize=8;endSize=8;entryX=0;entryY=0.5;entryDx=0;entryDy=0;exitX=1;exitY=0.5;exitDx=0;exitDy=0;" parent="1" source="NZT87ZV2PnWzYhANc2ur-8" target="NZT87ZV2PnWzYhANc2ur-49" edge="1">
          <mxGeometry width="160" relative="1" as="geometry">
            <mxPoint x="1240" y="284.5" as="sourcePoint" />
            <mxPoint x="1400" y="284.5" as="targetPoint" />
          </mxGeometry>
        </mxCell>
        <mxCell id="fUJwCpsrxEZ8bBtRbH8o-10" value="1" style="edgeLabel;html=1;align=center;verticalAlign=middle;resizable=0;points=[];" parent="fUJwCpsrxEZ8bBtRbH8o-8" vertex="1" connectable="0">
          <mxGeometry x="0.62" relative="1" as="geometry">
            <mxPoint as="offset" />
          </mxGeometry>
        </mxCell>
        <mxCell id="fUJwCpsrxEZ8bBtRbH8o-27" value="" style="endArrow=block;dashed=1;endFill=0;endSize=12;html=1;exitX=0.5;exitY=0;exitDx=0;exitDy=0;entryX=0.514;entryY=1.154;entryDx=0;entryDy=0;entryPerimeter=0;" parent="1" source="NZT87ZV2PnWzYhANc2ur-32" target="NZT87ZV2PnWzYhANc2ur-15" edge="1">
          <mxGeometry width="160" relative="1" as="geometry">
            <mxPoint x="840" y="502" as="sourcePoint" />
            <mxPoint x="570" y="502" as="targetPoint" />
          </mxGeometry>
        </mxCell>
        <mxCell id="fUJwCpsrxEZ8bBtRbH8o-31" value="Use" style="endArrow=open;endSize=12;dashed=1;html=1;exitX=0;exitY=0.5;exitDx=0;exitDy=0;entryX=1;entryY=0.5;entryDx=0;entryDy=0;" parent="1" source="NZT87ZV2PnWzYhANc2ur-27" target="NZT87ZV2PnWzYhANc2ur-37" edge="1">
          <mxGeometry width="160" relative="1" as="geometry">
            <mxPoint x="730" y="592" as="sourcePoint" />
            <mxPoint x="890" y="592" as="targetPoint" />
            <Array as="points">
              <mxPoint x="880" y="609" />
              <mxPoint x="820" y="609" />
            </Array>
          </mxGeometry>
        </mxCell>
        <mxCell id="fUJwCpsrxEZ8bBtRbH8o-33" value="Use" style="endArrow=open;endSize=12;dashed=1;html=1;exitX=0;exitY=0;exitDx=0;exitDy=0;entryX=1;entryY=0.5;entryDx=0;entryDy=0;" parent="1" source="NZT87ZV2PnWzYhANc2ur-20" target="NZT87ZV2PnWzYhANc2ur-12" edge="1">
          <mxGeometry width="160" relative="1" as="geometry">
            <mxPoint x="920" y="434" as="sourcePoint" />
            <mxPoint x="760" y="432" as="targetPoint" />
          </mxGeometry>
        </mxCell>
      </root>
    </mxGraphModel>
  </diagram>
</mxfile>
